<svg width="150" height="150" viewBox="0 0 150 150" fill="none" xmlns="http://www.w3.org/2000/svg">
<path d="M75 150C71.3654 150 68.4082 147.043 68.4082 143.408C68.4082 143.291 68.4114 143.175 68.4173 143.06L31.5258 127.779C30.3185 129.12 28.57 129.964 26.6279 129.964C22.9934 129.964 20.0361 127.007 20.0361 123.372C20.0361 119.737 22.9934 116.78 26.6279 116.78C30.2625 116.78 33.2197 119.737 33.2197 123.372C33.2197 123.489 33.2165 123.605 33.2106 123.72L70.1021 139.001C71.3095 137.66 73.0579 136.816 75 136.816C76.9421 136.816 78.6905 137.66 79.8979 139.001L116.789 123.72C116.783 123.605 116.78 123.489 116.78 123.372C116.78 119.737 119.737 116.78 123.372 116.78C127.007 116.78 129.964 119.737 129.964 123.372C129.964 127.007 127.007 129.964 123.372 129.964C121.43 129.964 119.682 129.12 118.474 127.779L81.5827 143.06C81.5889 143.176 81.5918 143.291 81.5918 143.408C81.5918 147.043 78.6346 150 75 150ZM75 141.211C73.7883 141.211 72.8027 142.196 72.8027 143.408C72.8027 144.62 73.7883 145.605 75 145.605C76.2117 145.605 77.1973 144.62 77.1973 143.408C77.1973 142.196 76.2117 141.211 75 141.211ZM123.372 121.175C122.16 121.175 121.175 122.16 121.175 123.372C121.175 124.583 122.16 125.569 123.372 125.569C124.583 125.569 125.569 124.583 125.569 123.372C125.569 122.16 124.583 121.175 123.372 121.175ZM26.6282 121.175C25.4165 121.175 24.431 122.16 24.431 123.372C24.431 124.583 25.4165 125.569 26.6282 125.569C27.8399 125.569 28.8255 124.583 28.8255 123.372C28.8255 122.16 27.8396 121.175 26.6282 121.175ZM75 123.633C48.1837 123.633 26.3672 101.816 26.3672 75C26.3672 48.1837 48.1837 26.3672 75 26.3672C84.5065 26.3672 93.7157 29.1105 101.632 34.3011C102.647 34.9664 102.93 36.3287 102.265 37.3436C101.6 38.3587 100.237 38.6414 99.2224 37.9764C96.7397 36.3486 94.1174 34.9857 91.3922 33.8982C93.3633 35.9007 95.1999 38.2831 96.8675 41.0224C97.9058 42.7274 98.857 44.5374 99.7172 46.4355H108.791C107.701 45.1535 106.531 43.9239 105.283 42.7515C104.398 41.9206 104.355 40.5302 105.186 39.6457C106.017 38.7606 107.408 38.7176 108.292 39.5487C118.041 48.7072 123.633 61.6286 123.633 75C123.633 101.816 101.816 123.633 75 123.633ZM77.1973 103.564V119.08C83.1407 118.223 88.7259 113.9 93.1143 106.692C93.7257 105.688 94.304 104.645 94.8486 103.564H77.1973ZM55.1514 103.564C55.696 104.645 56.2743 105.688 56.8857 106.692C61.2741 113.9 66.8593 118.223 72.8027 119.08V103.564H55.1514ZM99.7175 103.564C98.8573 105.463 97.9061 107.272 96.8678 108.978C95.2052 111.708 93.3747 114.085 91.4107 116.083C98.1718 113.372 104.117 109.037 108.755 103.565H99.7175V103.564ZM41.245 103.564C45.883 109.037 51.8279 113.372 58.5891 116.083C56.625 114.084 54.7945 111.708 53.1319 108.977C52.0937 107.272 51.1424 105.462 50.2822 103.564H41.245V103.564ZM101.49 99.1699H112.037C116.213 92.7926 118.787 85.2756 119.184 77.1973H105.439C105.224 85.0201 103.864 92.5184 101.49 99.1699ZM77.1973 99.1699H96.803C99.3495 92.6399 100.814 85.1124 101.043 77.1973H77.1973V99.1699ZM53.197 99.1699H72.8027V77.1973H48.9571C49.1862 85.1124 50.6505 92.6399 53.197 99.1699ZM37.9632 99.1699H48.5101C46.1361 92.5184 44.7759 85.0201 44.5611 77.1973H30.8156C31.2129 85.2756 33.7875 92.7926 37.9632 99.1699ZM105.439 72.8027H119.186C118.804 64.8571 116.353 57.3401 112.082 50.8301H101.49C103.864 57.4816 105.224 64.9799 105.439 72.8027ZM77.1973 72.8027H101.043C100.814 64.8876 99.3498 57.3601 96.803 50.8301H77.1973V55.957C77.1973 57.1708 76.2138 58.1543 75 58.1543C73.7862 58.1543 72.8027 57.1708 72.8027 55.957V50.8301H53.197C50.6505 57.3601 49.1862 64.8876 48.9571 72.8027H72.8027V64.7461C72.8027 63.5323 73.7862 62.5488 75 62.5488C76.2138 62.5488 77.1973 63.5323 77.1973 64.7461V72.8027ZM30.8156 72.8027H44.5611C44.7759 64.9799 46.1364 57.4816 48.5101 50.8301H37.9632C33.7875 57.2074 31.2129 64.7244 30.8156 72.8027ZM77.1973 46.4355H94.8486C94.304 45.3551 93.7257 44.3118 93.1143 43.3078C88.7259 36.0996 83.1407 31.7769 77.1973 30.9196V46.4355ZM55.1514 46.4355H72.8027V30.9196C66.8593 31.7769 61.2741 36.0999 56.8857 43.3078C56.2743 44.3118 55.696 45.3551 55.1514 46.4355ZM41.245 46.4355H50.2825C51.1427 44.5374 52.0939 42.7277 53.1322 41.0224C54.7948 38.2919 56.6253 35.9153 58.5894 33.917C51.8279 36.6278 45.883 40.9635 41.245 46.4355ZM128.109 114.132C127.828 114.132 127.543 114.079 127.269 113.965C126.147 113.5 125.615 112.215 126.079 111.094L139.001 79.8979C137.66 78.6905 136.816 76.9421 136.816 75C136.816 73.0579 137.66 71.3095 139.001 70.1021L123.72 33.2106C123.605 33.2168 123.489 33.2197 123.372 33.2197C119.737 33.2197 116.78 30.2625 116.78 26.6279C116.78 22.9934 119.737 20.0361 123.372 20.0361C127.007 20.0361 129.964 22.9934 129.964 26.6279C129.964 28.57 129.12 30.3185 127.779 31.5258L143.06 68.4173C143.176 68.4111 143.291 68.4082 143.408 68.4082C147.043 68.4082 150 71.3654 150 75C150 78.6346 147.043 81.5918 143.408 81.5918C143.291 81.5918 143.175 81.5886 143.06 81.5827L130.139 112.775C129.789 113.621 128.971 114.132 128.109 114.132ZM143.408 72.8027C142.196 72.8027 141.211 73.7883 141.211 75C141.211 76.2117 142.196 77.1973 143.408 77.1973C144.62 77.1973 145.605 76.2117 145.605 75C145.605 73.7883 144.62 72.8027 143.408 72.8027ZM123.372 24.431C122.16 24.431 121.175 25.4165 121.175 26.6282C121.175 27.8399 122.16 28.8255 123.372 28.8255C124.583 28.8255 125.569 27.8399 125.569 26.6282C125.569 25.4165 124.583 24.431 123.372 24.431ZM21.8915 114.132C21.0293 114.132 20.2113 113.622 19.8606 112.775L6.94014 81.5827C6.82441 81.5889 6.70869 81.5918 6.5918 81.5918C2.95723 81.5918 0 78.6346 0 75C0 71.3654 2.95723 68.4082 6.5918 68.4082C6.70869 68.4082 6.82471 68.4114 6.94014 68.4173L22.2208 31.5258C20.8802 30.3185 20.0361 28.57 20.0361 26.6279C20.0361 22.9934 22.9934 20.0361 26.6279 20.0361C28.57 20.0361 30.3185 20.8802 31.5258 22.2208L68.4173 6.94014C68.4111 6.82441 68.4082 6.70869 68.4082 6.5918C68.4082 2.95723 71.3654 0 75 0C78.6346 0 81.5918 2.95723 81.5918 6.5918C81.5918 6.70869 81.5886 6.82471 81.5827 6.94014L112.819 19.8785C113.94 20.3429 114.473 21.6281 114.008 22.7493C113.544 23.8705 112.258 24.4037 111.137 23.9385L79.8979 10.9989C78.6905 12.3393 76.9418 13.1836 75 13.1836C73.0579 13.1836 71.3095 12.3396 70.1021 10.9989L33.2106 26.2796C33.2168 26.3953 33.2197 26.511 33.2197 26.6279C33.2197 30.2625 30.2625 33.2197 26.6279 33.2197C26.511 33.2197 26.395 33.2165 26.2796 33.2106L10.9989 70.1021C12.3396 71.3095 13.1836 73.0579 13.1836 75C13.1836 76.9421 12.3396 78.6905 10.9989 79.8979L23.9203 111.094C24.385 112.215 23.8526 113.5 22.7312 113.965C22.4563 114.079 22.1716 114.132 21.8915 114.132ZM6.5918 72.8027C5.38008 72.8027 4.39453 73.7883 4.39453 75C4.39453 76.2117 5.38008 77.1973 6.5918 77.1973C7.80352 77.1973 8.78906 76.2117 8.78906 75C8.78906 73.7883 7.80352 72.8027 6.5918 72.8027ZM26.6282 24.431C25.4165 24.431 24.431 25.4165 24.431 26.6282C24.431 27.8399 25.4165 28.8255 26.6282 28.8255C27.8399 28.8255 28.8255 27.8399 28.8255 26.6282C28.8255 25.4165 27.8396 24.431 26.6282 24.431ZM75 4.39453C73.7883 4.39453 72.8027 5.38008 72.8027 6.5918C72.8027 7.80352 73.7883 8.78906 75 8.78906C76.2117 8.78906 77.1973 7.80352 77.1973 6.5918C77.1973 5.38008 76.2117 4.39453 75 4.39453Z" fill="#59ABFF"/>
</svg>
