<svg width="150" height="150" viewBox="0 0 150 150" fill="none" xmlns="http://www.w3.org/2000/svg">
<path d="M147.5 5H122.5V0H117.5V5H77.5V0H72.5V5H32.5V0H27.5V5H2.5C1.11937 5 0 6.11937 0 7.5V107.5C0 108.881 1.11937 110 2.5 110H55V147.5C55 148.881 56.1194 150 57.5 150H82.5C83.8806 150 85 148.881 85 147.5V110H147.5C148.881 110 150 108.881 150 107.5V7.5C150 6.11937 148.881 5 147.5 5ZM115 10H125V15H115V10ZM70 10H80V15H70V10ZM25 10H35V15H25V10ZM10 105H5V100H10V105ZM25 105H15V100H25V105ZM40 105H30V100H40V105ZM55 105H45V100H55V105ZM65 145H60V140H65V145ZM65 135H60V130H65V135ZM65 125H60V120H65V125ZM65 115H60V110H65V115ZM65 105H60V100H65V105ZM80 145H70V110H80V145ZM80 105H70V100H80V105ZM90 105H85V100H90V105ZM105 105H95V100H105V105ZM120 105H110V100H120V105ZM135 105H125V100H135V105ZM145 105H140V100H145V105ZM145 95H5V10H20V17.5C20 18.8806 21.1194 20 22.5 20H37.5C38.8806 20 40 18.8806 40 17.5V10H65V17.5C65 18.8806 66.1194 20 67.5 20H82.5C83.8806 20 85 18.8806 85 17.5V10H110V17.5C110 18.8806 111.119 20 112.5 20H127.5C128.881 20 130 18.8806 130 17.5V10H145V95Z" fill="#59ABFF"/>
<path d="M122.5 37.5H27.5V42.5H122.5V37.5Z" fill="#59ABFF"/>
<path d="M107.5 52.5H42.5V57.5H107.5V52.5Z" fill="#59ABFF"/>
<path d="M97.5 67.5H52.5V72.5H97.5V67.5Z" fill="#59ABFF"/>
<path d="M27.5 85H10V90H27.5V85Z" fill="#59ABFF"/>
<path d="M27.5 75H10V80H27.5V75Z" fill="#59ABFF"/>
<path d="M117.5 85H112.5V90H117.5V85Z" fill="#59ABFF"/>
<path d="M140 85H122.5V90H140V85Z" fill="#59ABFF"/>
</svg>
