<svg width="150" height="150" viewBox="0 0 150 150" fill="none" xmlns="http://www.w3.org/2000/svg">
<g clip-path="url(#clip0)">
<path d="M135.416 63.4678H124.823C123.205 63.4678 121.893 62.1563 121.893 60.5381C121.893 58.9199 123.205 57.6084 124.823 57.6084H132.486V17.8047H63.3534V57.6084H97.823C99.4412 57.6084 100.753 58.9199 100.753 60.5381C100.753 62.1563 99.4412 63.4678 97.823 63.4678H60.4237C58.8055 63.4678 57.494 62.1563 57.494 60.5381V14.875C57.494 13.2568 58.8055 11.9453 60.4237 11.9453H135.416C137.034 11.9453 138.345 13.2568 138.345 14.875V60.5381C138.345 62.1563 137.034 63.4678 135.416 63.4678Z" fill="#59ABFF"/>
<path d="M111.032 63.4678C110.842 63.4678 110.648 63.4495 110.458 63.4117C110.273 63.3739 110.089 63.3179 109.91 63.2446C109.734 63.1714 109.565 63.081 109.407 62.9745C109.245 62.867 109.095 62.7468 108.962 62.6083C108.826 62.4744 108.703 62.3245 108.595 62.1631C108.489 62.0052 108.398 61.8358 108.325 61.6596C108.252 61.4811 108.196 61.2991 108.158 61.1114C108.12 60.9215 108.102 60.7315 108.102 60.5381C108.102 60.347 108.12 60.1536 108.158 59.9659C108.196 59.7793 108.252 59.5939 108.325 59.4188C108.398 59.2392 108.489 59.0698 108.595 58.9119C108.703 58.7505 108.826 58.6006 108.962 58.4667C109.095 58.3317 109.245 58.2081 109.407 58.1028C109.565 57.9975 109.734 57.9071 109.91 57.8338C110.089 57.7606 110.273 57.7045 110.458 57.6668C110.836 57.5901 111.225 57.5901 111.604 57.6668C111.79 57.7045 111.976 57.7606 112.151 57.8338C112.331 57.9071 112.5 57.9975 112.658 58.1028C112.819 58.2081 112.969 58.3317 113.103 58.4667C113.238 58.6006 113.362 58.7505 113.467 58.9119C113.572 59.0698 113.663 59.2392 113.736 59.4188C113.809 59.5939 113.865 59.7793 113.903 59.9659C113.942 60.1536 113.961 60.347 113.961 60.5381C113.961 60.7315 113.942 60.9215 113.903 61.1114C113.865 61.2968 113.809 61.4811 113.736 61.6596C113.663 61.8358 113.572 62.0052 113.467 62.1631C113.362 62.3245 113.238 62.4744 113.103 62.6083C112.969 62.7468 112.819 62.867 112.658 62.9745C112.5 63.081 112.331 63.1714 112.151 63.2446C111.976 63.3179 111.79 63.3739 111.604 63.4117C111.416 63.4495 111.223 63.4678 111.032 63.4678Z" fill="#59ABFF"/>
<path d="M79.7058 47.2881C79.7058 47.1932 79.7379 47.0638 79.7699 46.9368L85.7323 27.3892C86.0847 26.2676 87.5267 25.7229 89.0007 25.7229C90.4747 25.7229 91.9178 26.2676 92.2703 27.3892L98.2635 46.9368C98.2956 47.065 98.3276 47.1932 98.3276 47.2881C98.3276 48.4749 96.5012 49.3389 95.1221 49.3389C94.3211 49.3389 93.6802 49.0826 93.4879 48.4097L92.3985 44.4042H85.6361L84.5467 48.4097C84.3533 49.0826 83.7124 49.3389 82.9113 49.3389C81.5334 49.3389 79.7058 48.4738 79.7058 47.2881ZM91.341 40.559L89.0007 31.9714L86.6615 40.559H91.341Z" fill="#59ABFF"/>
<path d="M108.039 25.9152C112.462 25.9152 115.923 27.9659 115.923 33.4774V41.7767C115.923 47.2881 112.462 49.3389 108.039 49.3389H102.365C101.051 49.3389 100.186 48.6351 100.186 47.8329V27.4212C100.186 26.6201 101.051 25.9152 102.365 25.9152H108.039ZM105.186 30.2731V44.981H108.039C109.834 44.981 110.923 43.9556 110.923 41.7767V33.4774C110.923 31.2985 109.834 30.2731 108.039 30.2731H105.186Z" fill="#59ABFF"/>
<path d="M147.07 0.292969H48.769C47.1508 0.292969 45.8393 1.60446 45.8393 3.22266V72.1905C45.8393 73.8087 47.1508 75.1202 48.769 75.1202H62.8784C62.2444 76.3172 61.8233 77.6505 61.6653 79.0718L59.5802 95.5616C58.5285 100.739 56.8485 100.718 51.3588 100.652C50.8163 100.645 47.414 100.639 47.414 100.639C46.8773 100.039 46.0968 99.6597 45.2282 99.6597H35.5797C35.5705 98.0495 34.2625 96.7461 32.65 96.7461H2.92969C1.31149 96.7461 0 98.0576 0 99.6758V139.945C0 141.563 1.31149 142.875 2.92969 142.875H32.65C34.2625 142.875 35.5705 141.571 35.5785 139.961H45.2282C46.447 139.961 47.4918 139.216 47.9336 138.157H50.6367C52.9438 145.397 58.2172 146.238 60.5347 146.238H77.0782C78.8452 148.224 81.4178 149.476 84.2789 149.476H108.181C113.497 149.476 117.82 145.151 117.82 139.835C117.82 137.851 117.217 136.004 116.185 134.469C118.802 132.743 120.533 129.777 120.533 126.415C120.533 123.809 119.493 121.441 117.807 119.705C119.493 117.968 120.533 115.6 120.533 112.994C120.533 109.632 118.802 106.667 116.185 104.941C117.217 103.405 117.82 101.559 117.82 99.5739C117.82 94.6426 114.098 90.564 109.315 90.0009L109.324 75.1202H147.07C148.689 75.1202 150 73.8087 150 72.1905V3.22266C150 1.60446 148.689 0.292969 147.07 0.292969ZM5.85938 102.605H29.7203V137.016H5.85938V102.605ZM35.5797 105.519H42.2985V134.102H35.5797V105.519ZM60.5347 140.379C59.634 140.379 56.892 140.379 55.7922 134.673C55.5256 133.294 54.3194 132.297 52.9152 132.297H48.1579V106.498C48.1579 106.498 50.7683 106.504 51.2878 106.511C56.9389 106.58 63.3453 106.658 65.3469 96.6076C65.3606 96.5401 65.3721 96.4714 65.3801 96.4027L67.4812 79.7825C67.4835 79.7653 67.4858 79.7482 67.4881 79.731C67.7731 77.1023 69.9818 75.1202 72.6276 75.1202C74.0089 75.1202 75.3067 75.658 76.2829 76.6331C77.2591 77.6093 77.7969 78.9059 77.7969 80.2849L77.7946 92.4477C75.8572 94.2112 74.6395 96.7529 74.6395 99.5739C74.6395 102.936 76.3699 105.902 78.9871 107.628C77.9549 109.163 77.3518 111.01 77.3518 112.994C77.3518 115.6 78.3909 117.968 80.0777 119.705C78.3909 121.441 77.3518 123.809 77.3518 126.415C77.3518 128.4 77.9549 130.246 78.9871 131.782C76.3699 133.507 74.6395 136.473 74.6395 139.835C74.6395 140.018 74.6441 140.199 74.6544 140.379H60.5347ZM92.1741 89.9334L92.1844 75.1213H103.465L103.456 89.9334H92.1741ZM110.892 109.213C112.977 109.213 114.674 110.909 114.674 112.994C114.674 115.079 112.977 116.776 110.892 116.776H93.314V115.125C93.314 113.507 92.0025 112.196 90.3843 112.196C88.7661 112.196 87.4546 113.507 87.4546 115.125V116.776H86.9923C84.9072 116.776 83.21 115.079 83.21 112.994C83.21 110.909 84.9072 109.213 86.9923 109.213H110.892ZM114.674 126.415C114.674 128.5 112.977 130.196 110.892 130.196H93.314V128.173C93.314 126.554 92.0025 125.243 90.3843 125.243C88.7661 125.243 87.4546 126.554 87.4546 128.173V130.196H86.9923C84.9072 130.196 83.21 128.5 83.21 126.415C83.21 124.331 84.9072 122.635 86.9923 122.635H110.891C112.977 122.635 114.674 124.331 114.674 126.415ZM108.181 143.616H90.4301V141.795C90.4301 140.176 89.1186 138.865 87.5004 138.865C85.8822 138.865 84.5707 140.176 84.5707 141.795V143.616H84.2789C82.1949 143.616 80.4989 141.92 80.4989 139.835C80.4989 137.751 82.1949 136.055 84.2789 136.055H108.181C110.266 136.055 111.962 137.751 111.962 139.835C111.962 141.92 110.266 143.616 108.181 143.616ZM111.962 99.5739C111.962 101.658 110.265 103.354 108.18 103.354H90.4301V101.43C90.4301 99.8119 89.1186 98.5004 87.5004 98.5004C85.8822 98.5004 84.5707 99.8119 84.5707 101.43V103.354H84.2812C82.1949 103.354 80.4989 101.658 80.4989 99.5739C80.4989 97.4888 82.1949 95.7928 84.2812 95.7928H108.18C110.265 95.7928 111.962 97.4888 111.962 99.5739ZM86.3148 89.9334H84.2812C84.28 89.9334 84.2789 89.9334 84.2766 89.9334H84.2754H83.654L83.6552 80.286C83.6552 78.455 83.2123 76.6926 82.3769 75.1202H86.3251L86.3148 89.9334ZM144.141 69.2608H51.6987V6.15234H144.141V69.2608Z" fill="#59ABFF"/>
</g>
<defs>
<clipPath id="clip0">
<rect width="150" height="150" fill="white"/>
</clipPath>
</defs>
</svg>
