<svg width="150" height="150" viewBox="0 0 150 150" fill="none" xmlns="http://www.w3.org/2000/svg">
<g clip-path="url(#clip0)">
<path d="M135.947 44.2498H32.4267L117.531 8.24784C119.715 7.32454 120.736 4.80477 119.812 2.62158C118.888 0.43725 116.366 -0.583937 114.186 0.340512L10.1157 44.3655C9.50552 44.6236 8.98921 45.01 8.57764 45.4748C4.20668 47.5366 1.17346 51.9849 1.17346 57.1292V137.121C1.17346 144.222 6.95141 150 14.0528 150H135.947C143.048 150 148.826 144.222 148.826 137.121V57.1292C148.827 50.0278 143.049 44.2498 135.947 44.2498ZM140.24 137.121C140.24 139.488 138.315 141.414 135.947 141.414H14.0528C11.6853 141.414 9.75968 139.488 9.75968 137.121V57.1292C9.75968 54.7617 11.6853 52.836 14.0528 52.836H135.947C138.314 52.836 140.24 54.7617 140.24 57.1292V137.121H140.24Z" fill="#59ABFF"/>
<path d="M45.5086 66.7378C29.6985 66.7378 16.8358 79.6005 16.8358 95.41C16.8358 111.22 29.6985 124.082 45.5086 124.082C61.3187 124.082 74.1808 111.22 74.1808 95.41C74.1803 79.6005 61.3187 66.7378 45.5086 66.7378ZM45.5086 115.495C34.4324 115.495 25.422 106.485 25.422 95.41C25.422 84.3344 34.4324 75.324 45.5086 75.324C56.5843 75.324 65.5946 84.3344 65.5946 95.41C65.5941 106.485 56.5837 115.495 45.5086 115.495Z" fill="#59ABFF"/>
<path d="M126.002 92.8102C129.158 92.8102 131.726 90.2423 131.726 87.086V70.9783C131.726 67.822 129.158 65.2542 126.002 65.2542H86.9697C83.8135 65.2542 81.2456 67.822 81.2456 70.9783V87.086C81.2456 90.2423 83.8135 92.8102 86.9697 92.8102H126.002ZM126.002 87.086L126.002 89.9481V87.086H126.002ZM86.9692 70.9783H126.001L125.992 87.086H86.9686V70.9783H86.9692Z" fill="#59ABFF"/>
<path d="M91.5205 100.896H87.9733C85.6018 100.896 83.6802 102.818 83.6802 105.189C83.6802 107.561 85.6018 109.482 87.9733 109.482H91.5205C93.892 109.482 95.8136 107.561 95.8136 105.189C95.8136 102.818 93.892 100.896 91.5205 100.896Z" fill="#59ABFF"/>
<path d="M109.806 100.896H106.258C103.886 100.896 101.965 102.818 101.965 105.189C101.965 107.561 103.886 109.482 106.258 109.482H109.806C112.177 109.482 114.099 107.561 114.099 105.189C114.099 102.818 112.177 100.896 109.806 100.896Z" fill="#59ABFF"/>
<path d="M128.09 100.896H124.542C122.171 100.896 120.249 102.818 120.249 105.189C120.249 107.561 122.171 109.482 124.542 109.482H128.09C130.461 109.482 132.383 107.561 132.383 105.189C132.383 102.818 130.461 100.896 128.09 100.896Z" fill="#59ABFF"/>
<path d="M91.5205 113.629H87.9733C85.6018 113.629 83.6802 115.55 83.6802 117.922C83.6802 120.293 85.6018 122.215 87.9733 122.215H91.5205C93.892 122.215 95.8136 120.293 95.8136 117.922C95.8136 115.551 93.892 113.629 91.5205 113.629Z" fill="#59ABFF"/>
<path d="M109.806 113.629H106.258C103.886 113.629 101.965 115.55 101.965 117.922C101.965 120.293 103.886 122.215 106.258 122.215H109.806C112.177 122.215 114.099 120.293 114.099 117.922C114.099 115.551 112.177 113.629 109.806 113.629Z" fill="#59ABFF"/>
<path d="M128.09 113.629H124.542C122.171 113.629 120.249 115.55 120.249 117.922C120.249 120.293 122.171 122.215 124.542 122.215H128.09C130.461 122.215 132.383 120.293 132.383 117.922C132.383 115.551 130.461 113.629 128.09 113.629Z" fill="#59ABFF"/>
</g>
<defs>
<clipPath id="clip0">
<rect width="150" height="150" fill="white"/>
</clipPath>
</defs>
</svg>
