<svg width="150" height="150" viewBox="0 0 150 150" fill="none" xmlns="http://www.w3.org/2000/svg">
<path d="M147.028 21.793H82.0146L96.8249 6.98278C97.9853 5.82234 97.9853 3.94068 96.8249 2.77994C95.6641 1.6198 93.7831 1.6198 92.622 2.77994L75.1111 20.2908L57.3777 2.55736C56.2169 1.39722 54.3359 1.39722 53.1748 2.55736C52.0144 3.7178 52.0144 5.59946 53.1748 6.7602L68.2079 21.7933H2.97167C1.33072 21.7933 0 23.124 0 24.765V145.271C0 146.912 1.33072 148.243 2.97167 148.243H61.4789C63.1198 148.243 64.4505 146.912 64.4505 145.271C64.4505 143.63 63.1198 142.299 61.4789 142.299H5.94335V27.7364H144.057V142.299H88.6697C87.0287 142.299 85.698 143.63 85.698 145.271C85.698 146.912 87.0287 148.242 88.6697 148.242H147.028C148.669 148.242 150 146.912 150 145.271V24.7647C150 23.1237 148.669 21.793 147.028 21.793Z" fill="#59ABFF"/>
<path d="M114.257 102.218V67.8167C114.257 53.035 102.231 41.0093 87.4501 41.0093H38.0469C23.2655 41.0093 11.2397 53.035 11.2397 67.8167V102.218C11.2397 117 23.2655 129.026 38.0469 129.026H87.4501C102.232 129.026 114.257 117 114.257 102.218ZM17.1831 102.218V67.8167C17.1831 56.3122 26.5427 46.9526 38.0469 46.9526H87.4501C98.9543 46.9526 108.314 56.3122 108.314 67.8167V102.218C108.314 113.723 98.9543 123.082 87.4501 123.082H38.0469C26.5427 123.082 17.1831 113.723 17.1831 102.218Z" fill="#59ABFF"/>
<path d="M135.127 90.0134H122.943C121.302 90.0134 119.972 91.3441 119.972 92.9851C119.972 94.6261 121.302 95.9568 122.943 95.9568H135.127C136.768 95.9568 138.099 94.6261 138.099 92.9851C138.099 91.3441 136.768 90.0134 135.127 90.0134Z" fill="#59ABFF"/>
<path d="M135.127 101.9H122.943C121.302 101.9 119.972 103.231 119.972 104.872C119.972 106.513 121.302 107.844 122.943 107.844H135.127C136.768 107.844 138.099 106.513 138.099 104.872C138.099 103.231 136.768 101.9 135.127 101.9Z" fill="#59ABFF"/>
<path d="M135.127 113.787H122.943C121.302 113.787 119.972 115.117 119.972 116.758C119.972 118.399 121.302 119.73 122.943 119.73H135.127C136.768 119.73 138.099 118.399 138.099 116.758C138.099 115.117 136.768 113.787 135.127 113.787Z" fill="#59ABFF"/>
<path d="M135.127 125.674H122.943C121.302 125.674 119.972 127.004 119.972 128.645C119.972 130.286 121.302 131.617 122.943 131.617H135.127C136.768 131.617 138.099 130.286 138.099 128.645C138.099 127.004 136.768 125.674 135.127 125.674Z" fill="#59ABFF"/>
<path d="M75 148.313C76.6412 148.313 77.9717 146.982 77.9717 145.341C77.9717 143.7 76.6412 142.369 75 142.369C73.3588 142.369 72.0283 143.7 72.0283 145.341C72.0283 146.982 73.3588 148.313 75 148.313Z" fill="#59ABFF"/>
<path d="M129.485 57.5515C135.084 57.5515 139.639 52.9965 139.639 47.3973C139.639 41.7984 135.084 37.2434 129.485 37.2434C123.886 37.2434 119.331 41.7984 119.331 47.3973C119.331 52.9965 123.886 57.5515 129.485 57.5515ZM129.485 43.1868C131.807 43.1868 133.696 45.0755 133.696 47.3973C133.696 49.7191 131.807 51.6082 129.485 51.6082C127.163 51.6082 125.274 49.7194 125.274 47.3973C125.274 45.0758 127.163 43.1868 129.485 43.1868Z" fill="#59ABFF"/>
<path d="M129.485 84C135.084 84 139.639 79.445 139.639 73.8458C139.639 68.2469 135.084 63.6919 129.485 63.6919C123.886 63.6919 119.331 68.2469 119.331 73.8458C119.331 79.445 123.886 84 129.485 84ZM129.485 69.6352C131.807 69.6352 133.696 71.524 133.696 73.8458C133.696 76.1676 131.807 78.0567 129.485 78.0567C127.163 78.0567 125.274 76.1679 125.274 73.8458C125.274 71.5243 127.163 69.6352 129.485 69.6352Z" fill="#59ABFF"/>
<path d="M93.0959 110.574C94.7369 110.574 96.0676 109.243 96.0676 107.602V75.4388C96.0676 73.7979 94.7369 72.4672 93.0959 72.4672C91.455 72.4672 90.1243 73.7979 90.1243 75.4388V107.602C90.1243 109.243 91.455 110.574 93.0959 110.574Z" fill="#59ABFF"/>
<path d="M93.0962 65.0564C94.7374 65.0564 96.0678 63.7259 96.0678 62.0847C96.0678 60.4435 94.7374 59.113 93.0962 59.113C91.455 59.113 90.1245 60.4435 90.1245 62.0847C90.1245 63.7259 91.455 65.0564 93.0962 65.0564Z" fill="#59ABFF"/>
</svg>
