<svg width="180" height="180" viewBox="0 0 180 180" fill="none" xmlns="http://www.w3.org/2000/svg">
<path d="M90 0C40.374 0 0 40.374 0 90C0 111.735 7.746 131.694 20.622 147.264C20.655 147.309 20.658 147.366 20.694 147.408C29.991 158.619 41.667 167.214 54.678 172.767C54.828 172.83 54.975 172.899 55.125 172.962C56.178 173.406 57.243 173.817 58.311 174.219C58.731 174.378 59.151 174.54 59.577 174.693C60.498 175.023 61.425 175.335 62.358 175.635C62.955 175.827 63.552 176.016 64.155 176.196C64.98 176.442 65.808 176.679 66.642 176.904C67.374 177.102 68.112 177.285 68.85 177.462C69.597 177.642 70.347 177.822 71.1 177.981C71.94 178.161 72.789 178.32 73.641 178.476C74.325 178.602 75.006 178.734 75.696 178.845C76.641 178.998 77.592 179.118 78.546 179.241C79.161 179.319 79.773 179.409 80.391 179.475C81.471 179.589 82.56 179.67 83.652 179.745C84.159 179.781 84.663 179.835 85.173 179.862C86.766 179.952 88.377 180 90 180C91.623 180 93.234 179.952 94.833 179.868C95.343 179.841 95.847 179.787 96.354 179.751C97.446 179.673 98.535 179.595 99.615 179.481C100.233 179.415 100.845 179.325 101.46 179.247C102.414 179.124 103.365 179.004 104.31 178.851C104.997 178.74 105.681 178.608 106.365 178.482C107.214 178.326 108.063 178.167 108.906 177.987C109.659 177.825 110.406 177.648 111.156 177.468C111.894 177.288 112.632 177.105 113.364 176.91C114.198 176.688 115.026 176.448 115.851 176.202C116.454 176.022 117.051 175.833 117.648 175.641C118.581 175.341 119.508 175.029 120.429 174.699C120.852 174.546 121.272 174.384 121.695 174.225C122.766 173.823 123.828 173.409 124.881 172.968C125.031 172.905 125.178 172.836 125.328 172.773C138.336 167.22 150.015 158.625 159.312 147.414C159.348 147.372 159.351 147.312 159.384 147.27C172.254 131.694 180 111.735 180 90C180 40.374 139.626 0 90 0ZM126.471 165.66C126.426 165.681 126.384 165.705 126.339 165.726C125.268 166.242 124.179 166.728 123.081 167.202C122.832 167.307 122.586 167.415 122.337 167.52C121.377 167.922 120.405 168.303 119.427 168.669C119.019 168.822 118.611 168.972 118.2 169.116C117.333 169.425 116.463 169.722 115.584 170.004C115.038 170.178 114.489 170.343 113.94 170.505C113.16 170.739 112.377 170.964 111.585 171.174C110.919 171.351 110.247 171.513 109.575 171.672C108.87 171.84 108.168 172.011 107.457 172.161C106.68 172.326 105.897 172.467 105.117 172.608C104.484 172.725 103.854 172.848 103.215 172.95C102.336 173.088 101.448 173.199 100.563 173.31C100.002 173.382 99.444 173.466 98.877 173.526C97.866 173.634 96.846 173.703 95.829 173.775C95.376 173.805 94.926 173.856 94.467 173.88C92.982 173.958 91.494 174 90 174C88.506 174 87.018 173.958 85.536 173.88C85.08 173.856 84.63 173.808 84.174 173.775C83.154 173.706 82.137 173.634 81.126 173.526C80.559 173.466 80.001 173.382 79.44 173.31C78.555 173.199 77.667 173.088 76.788 172.95C76.149 172.848 75.519 172.725 74.886 172.608C74.103 172.467 73.32 172.323 72.546 172.161C71.835 172.011 71.13 171.84 70.428 171.672C69.756 171.51 69.084 171.351 68.418 171.174C67.629 170.964 66.843 170.736 66.063 170.505C65.514 170.343 64.965 170.178 64.419 170.004C63.54 169.722 62.667 169.425 61.803 169.116C61.392 168.969 60.984 168.819 60.576 168.669C59.598 168.303 58.626 167.922 57.666 167.52C57.417 167.418 57.174 167.31 56.925 167.205C55.827 166.734 54.738 166.245 53.664 165.729C53.619 165.708 53.577 165.687 53.532 165.663C43.065 160.599 33.819 153.411 26.316 144.681C32.115 123.327 48.531 106.113 69.651 99.264C70.068 99.519 70.503 99.747 70.932 99.987C71.184 100.128 71.433 100.278 71.688 100.413C72.582 100.887 73.488 101.331 74.415 101.73C75.126 102.042 75.861 102.306 76.593 102.576C76.737 102.627 76.881 102.684 77.025 102.735C81.093 104.175 85.446 105 90 105C94.554 105 98.907 104.175 102.972 102.735C103.116 102.684 103.26 102.627 103.404 102.576C104.136 102.306 104.871 102.042 105.582 101.73C106.509 101.331 107.415 100.887 108.309 100.413C108.564 100.275 108.813 100.128 109.065 99.987C109.494 99.747 109.932 99.519 110.352 99.261C131.472 106.113 147.885 123.327 153.687 144.678C146.184 153.405 136.938 160.593 126.471 165.66ZM57 66C57 47.805 71.805 33 90 33C108.195 33 123 47.805 123 66C123 77.574 116.997 87.759 107.952 93.651C106.77 94.419 105.54 95.106 104.277 95.706C104.127 95.778 103.98 95.853 103.83 95.922C95.142 99.873 84.858 99.873 76.17 95.922C76.02 95.853 75.87 95.778 75.723 95.706C74.457 95.106 73.23 94.419 72.048 93.651C63.003 87.759 57 77.574 57 66ZM158.187 138.969C151.386 118.887 135.87 102.657 116.046 94.947C123.975 87.804 129 77.49 129 66C129 44.496 111.504 27 90 27C68.496 27 51 44.496 51 66C51 77.49 56.025 87.804 63.957 94.947C44.133 102.66 28.617 118.887 21.816 138.969C11.877 125.172 6 108.264 6 90C6 43.683 43.683 6 90 6C136.317 6 174 43.683 174 90C174 108.264 168.123 125.172 158.187 138.969Z" fill="#59ABFF"/>
</svg>
