<svg width="100" height="100" viewBox="0 0 100 100" fill="none" xmlns="http://www.w3.org/2000/svg">
<path d="M35.8103 75.3965C35.0028 75.3965 34.3482 76.0509 34.3482 76.8586V84.5585C34.3482 85.3662 35.0028 86.0206 35.8103 86.0206C36.6178 86.0206 37.2724 85.3662 37.2724 84.5585V76.8586C37.2724 76.0509 36.6178 75.3965 35.8103 75.3965Z" fill="#59ABFF"/>
<path d="M64.1119 75.3965C63.3045 75.3965 62.6498 76.0509 62.6498 76.8586V84.5585C62.6498 85.3662 63.3045 86.0206 64.1119 86.0206C64.9194 86.0206 65.574 85.3662 65.574 84.5585V76.8586C65.574 76.0509 64.9194 75.3965 64.1119 75.3965Z" fill="#59ABFF"/>
<path d="M92.5217 70.2921L87.626 68.328V67.0776C88.5871 66.5435 89.45 65.8485 90.1761 65.0281C93.2728 65.3937 96.2358 64.1575 98.1539 61.6706C100.137 59.0989 100.55 55.7846 99.258 52.8049L97.0596 47.7359C96.8943 47.355 96.7807 46.9532 96.7214 46.5422C96.2477 43.2496 94.6022 40.2365 92.088 38.0582C89.5737 35.8797 86.3571 34.6802 83.0306 34.6802C79.704 34.6802 76.4874 35.8797 73.9732 38.0582C71.4592 40.2365 69.8135 43.2494 69.3398 46.5422C69.2805 46.9534 69.1669 47.3552 69.0015 47.7359L66.8033 52.8049C65.5112 55.7844 65.9239 59.0987 67.9075 61.6706C69.6043 63.8706 72.1183 65.0966 74.8193 65.0964C75.1677 65.0964 75.5195 65.0757 75.8732 65.0342C76.5321 65.7814 77.3048 66.4249 78.1655 66.9372V68.3278L73.2701 70.2921C72.9509 70.4201 72.6394 70.565 72.3357 70.7252C71.3885 68.983 70.0361 67.4595 68.3533 66.3021L61.9769 61.9168C62.0137 61.1115 61.6917 60.3003 61.0357 59.7438L58.4447 57.5452C58.199 57.3366 57.923 57.1791 57.6313 57.072V54.112C60.3701 52.1255 62.3122 49.1073 62.8814 45.6315H63.0374C65.8251 45.6315 68.0931 43.3635 68.0931 40.5759C68.0931 39.3858 67.6786 38.291 66.9879 37.4264L68.033 29.9968C68.7863 24.6409 65.0471 19.6365 59.6972 18.8407L59.4892 18.8099C57.7785 16.0179 55.129 14.0035 51.95 13.1021L51.5674 12.9935C47.3526 11.7985 42.8443 12.5118 39.1985 14.9509C38.5273 15.3999 38.3471 16.308 38.7961 16.979C39.2451 17.65 40.1529 17.8303 40.8243 17.3811C43.7565 15.4196 47.3813 14.8459 50.7697 15.8068L51.1523 15.9153C53.8124 16.6696 55.9959 18.4274 57.3009 20.865C58.1986 22.5421 58.595 24.3865 58.4805 26.2315L57.4894 25.3796C56.5835 24.6009 55.2514 24.5803 54.3223 25.3308L53.0222 26.381H45.6009C40.7851 26.381 36.8671 30.299 36.8671 35.1147V35.5208C36.4794 35.5222 36.1023 35.5686 35.7397 35.653C34.0868 30.9996 34.5529 25.7568 37.0373 21.4682C37.442 20.7693 37.2038 19.8749 36.5051 19.47C35.8064 19.0655 34.912 19.3035 34.5071 20.0022C31.5026 25.1889 31.0154 31.5658 33.1754 37.1467C32.3413 38.0485 31.8303 39.2534 31.8303 40.5759C31.8303 43.3635 34.0983 45.6315 36.886 45.6315H37.042C37.6112 49.1073 39.5533 52.1255 42.2921 54.112V57.072C42.0004 57.1789 41.7244 57.3366 41.4789 57.545L38.8877 59.7438C38.2317 60.3003 37.9097 61.1117 37.9465 61.9168L31.5701 66.3021C30.2743 67.1932 29.174 68.3013 28.3038 69.5593C27.7398 69.2477 27.152 68.9814 26.5434 68.7658L22.214 67.2324V66.0801C24.4193 64.7176 26.0046 62.4465 26.4461 59.7929H27.1004C29.6656 59.7929 31.7525 57.706 31.7525 55.1409C31.7525 53.9892 31.3311 52.9349 30.6353 52.1216L30.8963 49.0315C31.2591 44.5817 29.3175 40.3607 25.7022 37.7412C22.0869 35.1214 17.4712 34.5905 13.3555 36.3209L10.4413 37.5461C5.92889 38.5423 2.91289 42.8662 3.55718 47.4591L4.20908 52.1066C3.50572 52.9218 3.07898 53.9821 3.07898 55.1409C3.07898 57.706 5.16587 59.7929 7.73116 59.7929H8.3854C8.79829 62.2743 10.2118 64.4205 12.1968 65.8029V67.2324L7.86742 68.7656C7.26114 68.9805 6.66383 69.2495 6.09225 69.5657C5.38557 69.9564 5.12942 70.8459 5.52009 71.5526C5.78677 72.0351 6.28603 72.3074 6.80088 72.3074C7.04008 72.3074 7.28278 72.2485 7.50697 72.1245C7.93839 71.8859 8.38812 71.6832 8.84332 71.522L12.5843 70.1969C13.3419 72.0025 15.1276 73.2739 17.2051 73.2739C19.2826 73.2739 21.0684 72.0025 21.8259 70.1969L25.5669 71.5222C26.0375 71.6887 26.4917 71.8959 26.927 72.1392C26.3463 73.6114 26.035 75.1979 26.035 76.8259V85.4998C26.035 86.3074 26.6896 86.9619 27.4971 86.9619C28.3045 86.9619 28.9592 86.3074 28.9592 85.4998V76.8259C28.9592 73.5827 30.5546 70.5494 33.2267 68.7116L39.316 64.5238L41.8119 67.8609C42.3484 68.5783 43.1896 68.9824 44.0573 68.9824C44.3275 68.9824 44.6004 68.9432 44.8673 68.8619L48.4993 67.7566V86.1119C48.4993 86.9195 49.1539 87.574 49.9614 87.574C50.7689 87.574 51.4235 86.9195 51.4235 86.1119V67.7566L55.0559 68.8621C55.3228 68.9432 55.5953 68.9824 55.8655 68.9824C56.733 68.9824 57.5744 68.5781 58.1109 67.8609L60.6066 64.5238L66.6959 68.7116C69.3682 70.5494 70.9635 73.5827 70.9635 76.8259V85.4998C70.9635 86.3074 71.6181 86.9619 72.4256 86.9619C73.233 86.9619 73.8876 86.3074 73.8876 85.4998V76.8259C73.8876 75.6743 73.7315 74.5434 73.4352 73.4588C73.7315 73.2858 74.0397 73.1342 74.3584 73.0063L78.6038 71.3029C79.3559 72.9217 80.9963 74.0475 82.8957 74.0475C84.795 74.0475 86.4355 72.9219 87.1876 71.3031L91.4331 73.0063C94.1177 74.0832 95.8522 76.6481 95.8522 79.5405V82.0153C95.8522 82.823 96.5068 83.4774 97.3142 83.4774C98.1217 83.4774 98.7763 82.823 98.7763 82.0153V79.5405C98.7761 75.4466 96.321 71.8165 92.5217 70.2921ZM34.7539 40.5757C34.7539 39.4069 35.7 38.4555 36.8665 38.4452V42.7059C35.7002 42.6958 34.7539 41.7446 34.7539 40.5757ZM27.1 56.8685H26.5721V53.4125H27.1C28.0529 53.4125 28.828 54.1878 28.828 55.1405C28.828 56.0932 28.0529 56.8685 27.1 56.8685ZM6.00277 55.1407C6.00277 54.1878 6.77787 53.4127 7.73077 53.4127H8.25868V56.8687H7.73077C6.77807 56.8685 6.00277 56.0934 6.00277 55.1407ZM10.0344 45.9816C9.06458 47.3209 8.47819 48.8631 8.31034 50.4883H7.73077C7.46252 50.4883 7.20013 50.5125 6.94416 50.5562L6.45271 47.0524C6.01564 43.9372 8.0883 41.0064 11.1712 40.38C11.2655 40.3609 11.3579 40.3325 11.4468 40.295L14.4887 39.016C17.6551 37.6847 21.2054 38.0935 23.9863 40.1085C26.7672 42.1238 28.2609 45.3704 27.9821 48.789L27.8335 50.5464C27.5945 50.5084 27.3497 50.4881 27.1 50.4881H26.5592C26.4333 49.2485 25.3835 48.2776 24.1111 48.2776H20.5007C17.9276 48.2776 15.3814 47.4213 13.3314 45.8666L12.9177 45.5529C12.4833 45.2234 11.9246 45.0803 11.386 45.1607C10.8468 45.241 10.3541 45.5402 10.0344 45.9816ZM12.4028 47.6967C12.4024 47.6973 12.4022 47.6977 12.4021 47.6981C12.4022 47.6977 12.4026 47.6973 12.4028 47.6967ZM11.1831 51.4615C11.1831 50.4041 11.4379 49.3822 11.9258 48.4621C14.4158 50.232 17.4431 51.2022 20.5009 51.2022H23.6479V58.2854C23.6479 61.7221 20.852 64.518 17.4155 64.518C13.979 64.518 11.1831 61.7221 11.1831 58.2854V51.4615ZM17.2049 70.3498C16.0555 70.3498 15.1206 69.4146 15.1206 68.2654V67.1507C15.8541 67.3408 16.6232 67.4422 17.4155 67.4422C18.0576 67.4422 18.6842 67.3751 19.2895 67.2486V68.2654C19.2895 69.4146 18.3543 70.3498 17.2049 70.3498ZM63.0557 42.7059V38.4452C64.2223 38.4553 65.1683 39.4069 65.1683 40.5757C65.1683 41.7446 64.2223 42.6958 63.0557 42.7059ZM65.1367 29.589L64.2805 35.6752C63.8883 35.5756 63.478 35.522 63.0555 35.5204V35.4021C63.0555 33.0448 62.3264 30.7774 61.006 28.8827C61.5817 26.6654 61.5614 24.3826 60.9655 22.2129C63.7897 23.4182 65.5832 26.4159 65.1367 29.589ZM39.7909 43.5083V35.1143C39.7909 31.9108 42.3971 29.3048 45.6005 29.3048H53.5387C53.873 29.3048 54.1972 29.1901 54.4572 28.9802L55.8673 27.8411L57.1771 28.9669C59.0546 30.5807 60.1313 32.9265 60.1313 35.4021V43.5081C60.1313 49.1161 55.569 53.6784 49.961 53.6784C44.353 53.6784 39.7909 49.1161 39.7909 43.5083ZM49.9612 56.6028C51.6348 56.6028 53.2342 56.2839 54.7068 55.7092V57.5826L49.9612 59.9095L45.2157 57.5826V55.7092C46.6881 56.2837 48.2876 56.6028 49.9612 56.6028ZM44.1004 66.0383L40.9508 61.8273L43.2506 59.8757L48.4989 62.449V64.6997L44.1004 66.0383ZM55.8219 66.0383L51.4233 64.6999V62.4492L56.6716 59.8759L58.9714 61.8275L55.8219 66.0383ZM70.2227 59.8847C68.899 58.1684 68.6235 55.9569 69.486 53.9685L71.6842 48.8995C71.9528 48.2804 72.1378 47.6275 72.2339 46.9588C73.0014 41.6261 77.6429 37.6046 83.0306 37.6046C88.4183 37.6046 93.0598 41.6261 93.8271 46.9588C93.9232 47.6273 94.1082 48.2802 94.3768 48.8995L96.575 53.9685C97.4373 55.9567 97.162 58.1684 95.8383 59.8847C94.8581 61.1554 93.4691 61.9377 91.9447 62.1254C92.2595 61.3074 92.4648 60.4354 92.5402 59.5266C92.6069 58.7219 92.0084 58.0154 91.2039 57.9487C90.3999 57.8834 89.6929 58.4805 89.626 59.285C89.3443 62.6863 86.4472 65.3506 83.0306 65.3506C79.3798 65.3506 76.41 62.3808 76.41 58.73V51.7161C76.41 50.1608 76.8678 48.6313 77.7109 47.3329C79.6029 48.7771 81.935 49.6031 84.3172 49.666L89.6511 49.8068V53.1747C89.6511 53.9823 90.3058 54.6368 91.1132 54.6368C91.9207 54.6368 92.5753 53.9823 92.5753 53.1747V49.4109C92.5753 48.0357 91.4984 46.9302 90.1239 46.8941L84.3942 46.7432C82.5389 46.6941 80.7246 46.0221 79.2853 44.8515L78.9075 44.5441C78.4619 44.1817 77.9022 44.0156 77.3308 44.077C76.7598 44.138 76.2477 44.4187 75.8892 44.8669C74.3391 46.8035 73.4853 49.236 73.4853 51.7167V58.7306C73.4853 59.9251 73.7077 61.068 74.1103 62.1227C72.5885 61.9336 71.2015 61.1538 70.2227 59.8847ZM82.8955 71.1231C81.8995 71.1231 81.0891 70.3129 81.0891 69.3167V68.0759C81.7163 68.2059 82.3654 68.275 83.0304 68.275C83.5992 68.275 84.1574 68.2215 84.7017 68.1233V69.3169C84.7019 70.3129 83.8915 71.1231 82.8955 71.1231Z" fill="#59ABFF"/>
<path d="M3.13375 74.075C2.40699 73.7223 1.53266 74.0268 1.18059 74.7536C0.397299 76.3718 0 78.1026 0 79.8978V84.5586C0 85.3662 0.654627 86.0207 1.46209 86.0207C2.26956 86.0207 2.92418 85.3662 2.92418 84.5586V79.8978C2.92418 78.5476 3.22303 77.2458 3.81274 76.028C4.16462 75.3012 3.8607 74.4267 3.13375 74.075Z" fill="#59ABFF"/>
</svg>
