<svg width="100" height="100" viewBox="0 0 100 100" fill="none" xmlns="http://www.w3.org/2000/svg">
<g clip-path="url(#clip0)">
<path d="M98.5366 97.0691H96.5408V40.7877C96.5408 39.9793 95.8858 39.3243 95.0774 39.3243C94.269 39.3243 93.614 39.9793 93.614 40.7877V97.0691H76.9598V26.1104H93.614V34.5513C93.614 35.3597 94.269 36.0147 95.0774 36.0147C95.8858 36.0147 96.5408 35.3597 96.5408 34.5513V26.0253C96.5408 24.4585 95.2661 23.1838 93.6993 23.1838H76.8745C75.3077 23.1838 74.033 24.4585 74.033 26.0253V31.8425H69.5359C69.6938 31.5362 69.8456 31.2256 69.99 30.91C72.4157 25.6126 72.633 19.6875 70.6021 14.2263C68.5715 8.7654 64.5355 4.42189 59.2378 1.99619C53.9404 -0.42951 48.0151 -0.64687 42.5539 1.38391C38.1123 3.03558 34.409 6.00663 31.8439 9.9759C29.3652 13.8119 28.1309 18.4243 28.3683 22.9631C28.4091 23.7405 29.0512 24.35 29.8297 24.35C29.8569 24.35 29.8836 24.3492 29.9119 24.3481C30.7056 24.3315 31.344 23.6829 31.344 22.8851C31.344 22.7305 31.32 22.5815 31.2756 22.4416C31.1534 18.6325 32.2221 14.7836 34.3022 11.5644C36.5223 8.12912 39.7284 5.55728 43.5742 4.12707C48.3023 2.36906 53.4325 2.55696 58.0195 4.6574C62.6063 6.75764 66.1007 10.5181 67.8591 15.2466C69.6175 19.9751 69.4292 25.1049 67.329 29.6917C65.2289 34.2786 61.4682 37.7729 56.7397 39.5313C53.7808 40.6316 50.5754 40.976 47.4717 40.5272C46.6719 40.4111 45.9297 40.9662 45.814 41.7662C45.6982 42.5662 46.253 43.3082 47.0529 43.4239C48.0756 43.5718 49.1068 43.6452 50.1387 43.6452C51.5851 43.6452 53.031 43.4955 54.452 43.2097V47.1184H39.6539C38.0871 47.1184 36.8124 48.3931 36.8124 49.9599V58.6979H29.4077L32.5245 50.0275C32.975 48.7744 32.7866 47.3762 32.0207 46.2873C31.2549 45.1981 30.0028 44.548 28.6715 44.548H26.741L28.774 42.2583H39.4742C41.9227 42.2583 43.9149 40.2661 43.9149 37.8174C43.9149 35.3689 41.9227 33.3767 39.4742 33.3767H34.928C34.9873 33.0647 35.0197 32.7432 35.0197 32.4142C35.0197 29.5805 32.7144 27.275 29.8805 27.275C27.5553 27.275 25.5867 28.828 24.9549 30.9508H24.3667C22.7583 30.9508 21.2005 31.6195 20.0928 32.7847L14.7716 38.3823C12.6778 40.5849 11.5244 43.4715 11.5244 46.5105V50.8587L3.6924 69.1339C3.40109 69.8133 3.47016 70.5876 3.87718 71.2049C4.11561 71.5667 4.45082 71.8396 4.83501 72.0064C4.83384 72.0396 4.82994 72.0722 4.82994 72.1056V97.0691H1.46338C0.655009 97.0691 0 97.7241 0 98.5325C0 99.3408 0.655009 99.9958 1.46338 99.9958H98.5366C99.345 99.9958 100 99.3408 100 98.5325C100 97.7241 99.3448 97.0691 98.5366 97.0691ZM56.3934 50.0452V58.4717C56.3934 59.2801 57.0484 59.9351 57.8568 59.9351C58.6652 59.9351 59.3202 59.2801 59.3202 58.4717V49.9599C59.3202 48.7079 58.5052 47.6445 57.3788 47.2669V42.4062C57.5056 42.3617 57.6338 42.3211 57.7598 42.2741C61.8023 40.7709 65.2311 38.1682 67.7243 34.7691H74.033V97.0691H59.3204V64.7079C59.3204 63.8995 58.6654 63.2445 57.857 63.2445C57.0486 63.2445 56.3936 63.8995 56.3936 64.7079V97.0691H42.5005V61.5396C42.5005 59.9999 41.2687 58.7451 39.7394 58.7022V50.0452H56.3934ZM29.8807 30.2022C31.1005 30.2022 32.0931 31.1947 32.0931 32.4146C32.0931 33.6345 31.1005 34.6268 29.8807 34.6268C28.6608 34.6268 27.6684 33.6345 27.6684 32.4146C27.6684 31.1947 28.6608 30.2022 29.8807 30.2022ZM14.3329 51.7359C14.411 51.5537 14.4512 51.3578 14.4512 51.1595V46.511C14.4512 44.226 15.3183 42.0555 16.8927 40.3994L22.2141 34.8019C22.772 34.2148 23.5567 33.8782 24.3667 33.8782H24.9549C25.5869 36.0009 27.5553 37.5538 29.8805 37.5538C31.1612 37.5538 32.3331 37.0818 33.234 36.3041H39.474C40.3087 36.3041 40.9879 36.9831 40.9879 37.818C40.9879 38.6529 40.3089 39.3321 39.474 39.3321H28.7027C27.9117 39.3321 27.157 39.6712 26.6325 40.2626L23.5587 43.7248C22.9706 44.3874 22.8252 45.3376 23.1885 46.1454C23.5518 46.9532 24.3588 47.4753 25.2447 47.4753H28.6713C29.0567 47.4753 29.4048 47.6562 29.6266 47.9713C29.8483 48.2864 29.9006 48.6753 29.7702 49.038L26.2975 58.6985H24.2031L25.8501 53.426C26.0915 52.6531 25.9492 51.8024 25.4697 51.1502C24.9901 50.4979 24.2205 50.1084 23.4108 50.1084H20.4588C19.4799 50.1084 18.6023 50.6534 18.1682 51.5308L9.39568 69.2652H7.67163H6.82111L14.3329 51.7359ZM12.661 69.2647L20.6893 53.0346H22.9058L21.1119 58.7775C21.0526 58.9671 21.0233 59.1623 21.0169 59.3574C20.3915 59.8791 19.9925 60.6635 19.9925 61.5396V69.2647H12.661ZM7.75689 72.1914H24.4111V80.2006C24.4111 81.009 25.0661 81.664 25.8745 81.664C26.6829 81.664 27.3379 81.009 27.3379 80.2006V72.1063C27.3379 70.5396 26.0632 69.2648 24.4964 69.2648H22.9193V61.625H39.5735V97.0691H27.3379V86.4371C27.3379 85.6288 26.6829 84.9738 25.8745 84.9738C25.0661 84.9738 24.4111 85.6288 24.4111 86.4371V97.0691H7.75689V72.1914Z" fill="#59ABFF"/>
</g>
<defs>
<clipPath id="clip0">
<rect width="100" height="100" fill="white"/>
</clipPath>
</defs>
</svg>
