<svg width="100" height="115" viewBox="0 0 100 115" fill="none" xmlns="http://www.w3.org/2000/svg">
<path d="M88.175 22.9867V4.60986C88.175 2.06793 86.4332 0 84.292 0H81.6734C79.9055 0 78.4126 1.41146 77.9449 3.33397L60.0656 11.5609C59.3027 11.912 58.9237 12.9308 59.2195 13.8369C59.4469 14.5337 60.0073 14.9608 60.6014 14.9608C60.7794 14.9608 60.9604 14.9223 61.1364 14.8414L77.7904 7.1783V79.6806L39.256 61.9495C39.0853 61.8709 38.9037 61.8306 38.7206 61.8306H36.3689H36.3669H36.3649H34.3048V25.0284H38.7206C38.9037 25.0284 39.0853 24.988 39.256 24.9094L55.2427 17.5531C56.0056 17.202 56.3845 16.1832 56.0888 15.2772C55.7931 14.3714 54.9349 13.9215 54.1719 14.2726L38.4432 21.51H31.7504V17.8186C31.7504 15.0602 29.8599 12.8159 27.5365 12.8159H21.1951C18.8716 12.8159 16.9812 15.0602 16.9812 17.8186V21.5809C7.49097 22.4801 0 31.9353 0 43.4293C0 52.6688 4.84034 60.5908 11.6685 63.8106V71.1619C11.6685 73.4372 12.8955 75.378 14.605 76.1027V110.33C14.605 112.699 16.2287 114.627 18.2244 114.627H24.2154C26.2111 114.627 27.8348 112.699 27.8348 110.33V104.332C28.041 104.346 28.2461 104.355 28.4496 104.355C30.3359 104.355 32.1052 103.716 33.7319 102.444C34.9781 101.469 35.4692 99.5613 34.8998 97.9078L30.7964 85.993L33.8212 82.72C34.1292 82.3867 34.3048 81.9148 34.3048 81.42V76.3037C36.3236 75.8206 37.8486 73.699 37.8486 71.1622V65.3489H38.4434L77.9451 83.525C78.4128 85.4475 79.9057 86.8589 81.6736 86.8589H84.2922C86.4334 86.8589 88.1752 84.791 88.1752 82.2491V63.8722C94.8173 62.9941 100 56.291 100 48.175V38.6842C100 30.5679 94.8171 23.8648 88.175 22.9867ZM31.3414 61.8306H27.8348V25.0284H31.3414V61.8306ZM21.1953 16.334H27.5367C28.2262 16.334 28.7872 17.0001 28.7872 17.8186V21.51H19.9448V17.8186C19.9448 17.0001 20.5056 16.334 21.1953 16.334ZM2.96336 43.4293C2.96336 33.283 9.91657 25.0281 18.4631 25.0281H24.8714V61.8306H18.4631C9.91657 61.8306 2.96336 53.576 2.96336 43.4293ZM25.3549 87.1209C25.0469 87.4542 24.8712 87.9261 24.8712 88.421V91.6691C24.8712 92.6406 25.5346 93.4281 26.3529 93.4281C27.1712 93.4281 27.8346 92.6406 27.8346 91.6691V89.1978L28.464 88.5166L32.1567 99.2388C32.1907 99.3376 32.1664 99.4548 32.1014 99.5057C30.7902 100.531 29.3852 100.959 27.8346 100.804V99.1654C27.8346 98.194 27.1712 97.4064 26.3529 97.4064C25.5346 97.4064 24.8712 98.194 24.8712 99.1654V110.33C24.8712 110.759 24.5769 111.109 24.2152 111.109H18.2244C17.8625 111.109 17.5683 110.759 17.5683 110.33V76.4072H31.3414V80.6429L25.3549 87.1209ZM34.885 71.1619C34.885 72.1144 34.2325 72.8891 33.4302 72.8891H16.0867C15.2844 72.8891 14.6319 72.1144 14.6319 71.1619V64.8728C15.8684 65.1838 17.1497 65.3487 18.4631 65.3487H34.885V71.1619ZM97.0366 48.175C97.0366 54.3485 93.1787 59.4704 88.1752 60.3265V52.8318C88.1752 51.8603 87.512 51.0727 86.6935 51.0727C85.8751 51.0727 85.2119 51.8603 85.2119 52.8318V82.2488C85.2119 82.8509 84.7994 83.3406 84.2922 83.3406H81.6736C81.1665 83.3406 80.754 82.8509 80.754 82.2488V4.60986C80.754 4.0078 81.1665 3.51809 81.6736 3.51809H84.2922C84.7994 3.51809 85.2119 4.0078 85.2119 4.60986V45.3352C85.2119 46.3067 85.8751 47.0943 86.6935 47.0943C87.512 47.0943 88.1752 46.3067 88.1752 45.3352V26.5325C93.1789 27.3885 97.0366 32.5104 97.0366 38.6842V48.175Z" fill="#59ABFF"/>
</svg>
