<svg width="100" height="115" viewBox="0 0 100 115" fill="none" xmlns="http://www.w3.org/2000/svg">
<path d="M22.5526 62.2971C21.7692 62.063 20.968 62.5987 20.7629 63.4938L18.6694 72.6346L0.321979 98.8004C-0.18439 99.5224 -0.0823345 100.577 0.549552 101.156C0.820137 101.403 1.1439 101.523 1.46551 101.523C1.89524 101.523 2.32126 101.308 2.61081 100.895L21.1533 74.4511C21.282 74.2677 21.3754 74.0553 21.4274 73.8276L23.5999 64.3417C23.805 63.4469 23.3362 62.5314 22.5526 62.2971Z" fill="#59ABFF"/>
<path d="M25.4201 57.7178C26.6116 54.8293 28.4218 52.2981 30.6549 50.3976L39.471 42.8955C40.6484 41.8937 42.1051 41.3895 43.5702 41.4817L52.0137 42.0022C52.9183 42.0578 53.7397 42.5727 54.2668 43.4142C54.7941 44.2564 54.9555 45.3105 54.71 46.307C54.3792 47.6486 53.3813 48.6107 52.1682 48.7586L44.7365 49.6631C44.1349 49.7364 43.6344 50.224 43.4764 50.891L40.6374 62.867C40.4112 63.8217 40.34 64.8046 40.4257 65.7873L40.8636 70.8167C40.9389 71.6812 41.5764 72.3265 42.3209 72.3265C42.3694 72.3265 42.4185 72.3236 42.4678 72.318C43.2737 72.2265 43.8619 71.4058 43.7818 70.4852L43.3438 65.4555C43.2936 64.8792 43.3354 64.3029 43.4682 63.7429L46.0448 52.8735L52.4788 52.0906C54.891 51.7968 56.8747 49.8834 57.5327 47.216C58.0215 45.2348 57.7003 43.1383 56.6518 41.4643C55.6035 39.7905 53.9704 38.767 52.1717 38.6564L43.7282 38.1359C41.7217 38.0137 39.7293 38.6464 38.0694 39.9257L38.0919 39.862C40.1682 34.004 43.7499 29.1468 48.4502 25.8153L54.7995 21.315C54.9422 21.2139 55.0689 21.0854 55.1735 20.9351L67.8678 2.71894C68.3722 1.99519 68.2676 0.941048 67.6341 0.364723C67.0007 -0.211603 66.0781 -0.0918701 65.5737 0.631664L53.0378 18.6206L46.9043 22.9681C41.6722 26.6767 37.685 32.0836 35.3739 38.6041L33.5469 43.7591L28.9035 47.7103C26.2853 49.9383 24.1636 52.9048 22.7675 56.2893C22.4222 57.1263 22.7362 58.1246 23.4687 58.5189C24.2013 58.9138 25.0751 58.5548 25.4201 57.7178Z" fill="#59ABFF"/>
<path d="M99.4504 5.44158C98.8181 4.8628 97.8955 4.97963 97.3891 5.7016L89.2409 17.3219C88.7345 18.0439 88.8366 19.0984 89.4684 19.677C89.739 19.9245 90.0628 20.0447 90.3844 20.0447C90.8141 20.0447 91.2401 19.8298 91.5297 19.4168L99.6779 7.79647C100.184 7.07472 100.082 6.02014 99.4504 5.44158Z" fill="#59ABFF"/>
<path d="M87.3898 22.6414C86.7577 22.0626 85.8349 22.1795 85.3285 22.9014L79.1086 31.7719C78.6939 32.3637 78.463 33.1075 78.4589 33.8655L78.4167 41.5107L76.9226 41.4339C73.8504 41.2746 71.2217 44.011 71.0833 47.5308L71.0649 47.9944C71.0045 49.5268 71.4182 50.9997 72.2337 52.1971C71.9523 52.3979 71.6845 52.628 71.4344 52.8891C70.3558 54.0154 69.7257 55.5543 69.6602 57.2216L69.6424 57.6713C69.5822 59.1996 70.0111 60.6257 70.7693 61.7533C69.3292 62.8142 68.3434 64.6285 68.2605 66.7287L68.2429 67.1773C68.1814 68.7389 68.6218 70.2387 69.4874 71.4352C68.0472 72.4982 67.0408 74.2929 66.917 76.3697C66.8433 77.6068 67.0789 78.8097 67.5874 79.8685C67.5508 79.9846 67.5241 80.1066 67.5106 80.2344L66.6435 88.4548C66.6362 88.521 66.6144 88.5842 66.5803 88.6382L62.6062 94.934C62.0971 95.74 61.1244 95.9518 60.3923 95.4161C60.0228 95.146 59.7678 94.7276 59.6742 94.2382C59.6006 93.8529 59.6352 93.4608 59.7684 93.1057L62.0097 89.1978C62.1771 88.9059 62.4435 88.2317 62.4498 88.2122C62.5935 87.7874 62.6909 87.3422 62.7341 86.8898L64.1263 72.2907C64.2139 71.3708 63.6324 70.5441 62.8273 70.4436C62.021 70.3442 61.2985 71.0076 61.2107 71.9277L59.8184 86.5271C59.8065 86.6519 59.7813 86.7743 59.7481 86.8941L53.9778 97.0888C53.4562 97.9979 52.4452 98.3408 51.574 97.9057C51.0844 97.6609 50.7134 97.2103 50.5292 96.6369C50.345 96.0635 50.373 95.4456 50.6078 94.8967L52.9944 89.324C53.0661 89.1565 53.3383 88.0306 53.3791 87.6257L54.9764 71.7566C55.0689 70.8376 54.4918 70.0066 53.6871 69.9007C52.8831 69.7964 52.1556 70.4545 52.0628 71.374L50.4655 87.243C50.4355 87.5419 50.3374 87.828 50.1818 88.0706L44.5847 96.8008C44.0232 97.6774 43.004 97.9488 42.1604 97.4457C41.264 96.9105 40.8876 95.6667 41.3039 94.6135L44.3556 86.8905C44.8135 85.7325 44.9973 84.4516 44.8872 83.1866L44.4 77.5911C44.32 76.6703 43.6017 75.9989 42.7958 76.0898C41.9899 76.1814 41.4016 77.0021 41.4818 77.9226L41.969 83.5181C42.0282 84.199 41.9293 84.8881 41.6828 85.5116L38.6309 93.2345C38.2774 94.1294 38.1503 95.0783 38.2221 95.996L36.1022 96.8377C35.6148 97.0314 35.1868 97.3767 34.8652 97.836L25.0009 111.904C24.4946 112.626 24.5966 113.68 25.2285 114.259C25.4991 114.506 25.8229 114.627 26.1445 114.627C26.5742 114.627 27.0002 114.412 27.2898 113.999L37.1186 99.9816L39.3541 99.0941C39.747 99.6235 40.2335 100.076 40.8026 100.416C41.5236 100.846 42.2953 101.053 43.0564 101.053C44.5519 101.053 46.0063 100.254 46.9506 98.7809L47.7154 97.5878C47.7348 97.6557 47.7541 97.7236 47.7758 97.7911C48.2378 99.2299 49.1692 100.361 50.3982 100.975C51.0352 101.294 51.7013 101.446 52.3584 101.446C53.958 101.446 55.5028 100.542 56.4303 98.9252L57.5826 96.9161C57.9128 97.433 58.3247 97.8833 58.811 98.2387C59.5723 98.7952 60.4261 99.0626 61.2715 99.0626C62.695 99.0626 64.0942 98.3046 64.9844 96.8944L65.6472 95.8443C65.9467 96.3943 66.3369 96.8924 66.8183 97.3039C67.6631 98.0259 68.6467 98.3761 69.6215 98.3761C70.9893 98.3761 72.3398 97.6863 73.2656 96.3666L75.6833 92.9182C76.4528 91.8212 76.9337 90.5028 77.0743 89.1058L77.7007 82.8795C79.6148 81.9765 81.0302 79.889 81.1788 77.3986C81.276 75.7681 80.8381 74.1957 79.9424 72.9365C81.4207 71.8837 82.4377 70.046 82.5216 67.9122L82.5394 67.4625C82.5984 65.961 82.1863 64.5579 81.4527 63.4397C82.9335 62.3873 83.9529 60.5477 84.0372 58.4109L84.0548 57.9621C84.1142 56.4512 83.7027 54.9994 82.8921 53.8231C84.3658 52.7388 85.3751 50.8829 85.4595 48.734L85.4777 48.2716C85.5449 46.5663 85.0269 44.9331 84.0188 43.6728C83.2897 42.7614 82.3671 42.1257 81.3479 41.8138L81.3968 33.8672L87.6166 24.997C88.1237 24.2746 88.0217 23.22 87.3898 22.6414ZM80.4639 55.7249C80.9212 56.2968 81.1562 57.0375 81.1258 57.8118L81.1082 58.2605C81.0453 59.8575 79.8652 61.0982 78.4591 61.0267L74.6469 60.8002C73.421 60.5422 72.5146 59.2839 72.5721 57.8223L72.5899 57.3726C72.6204 56.599 72.9127 55.8851 73.413 55.3628C73.8846 54.8705 74.4875 54.6036 75.1221 54.6036C75.1609 54.6036 78.705 54.7847 78.705 54.7847C79.3819 54.8193 80.0066 55.1533 80.4639 55.7249ZM79.5927 67.7608C79.5299 69.3575 78.3445 70.5977 76.9435 70.5271L73.5936 70.3549C72.9164 70.32 72.2918 69.9861 71.8345 69.4144C71.3774 68.8428 71.1423 68.1019 71.1727 67.3276L71.1902 66.8791C71.2532 65.2823 72.4396 64.0423 73.8394 64.1127L77.5353 64.3332C78.7614 64.5912 79.6679 65.8495 79.6105 67.3113L79.5927 67.7608ZM73.3954 90.8227L70.9775 94.271C70.3869 95.1132 69.3317 95.2669 68.5757 94.6202C67.8277 93.9811 67.6537 92.7891 68.1796 91.907L68.982 90.5613C68.9849 90.5566 68.9871 90.5515 68.9898 90.5468C69.2915 90.0514 69.4868 89.4755 69.5546 88.8661L70.2111 82.6422C70.8454 82.9668 71.5338 83.1567 72.2505 83.1935L74.7055 83.3197L74.1618 88.7229C74.0842 89.4922 73.8193 90.2184 73.3954 90.8227ZM78.2538 77.1703C78.1563 78.8072 76.9161 80.0751 75.4752 80.005L72.3819 79.8459C71.6593 79.8086 70.9959 79.4488 70.514 78.8322C70.0321 78.2157 69.7937 77.422 69.8428 76.5973C69.9404 74.9606 71.1844 73.6927 72.6212 73.7626L75.7147 73.9216C76.4373 73.9589 77.1007 74.3188 77.5826 74.9353C78.0646 75.5519 78.3029 76.3455 78.2538 77.1703ZM82.5488 48.1212L82.5306 48.5836C82.4647 50.2583 81.223 51.5589 79.7526 51.4843L76.5333 51.3187C75.8232 51.2823 75.1683 50.9321 74.6885 50.3325C74.2087 49.7329 73.9624 48.9562 73.9942 48.1454L74.0126 47.6819C74.0787 46.0072 75.3212 44.7131 76.7906 44.7812L80.0099 44.9468C80.72 44.9832 81.3749 45.3334 81.8547 45.933C82.3343 46.5323 82.5806 47.3095 82.5488 48.1212Z" fill="#59ABFF"/>
</svg>
