<svg width="20" height="20" viewBox="0 0 20 20" fill="none" xmlns="http://www.w3.org/2000/svg">
<path d="M11.948 17.4567C11.784 17.4952 11.6169 17.5294 11.451 17.5582C11.0173 17.6342 10.7306 18.0272 10.8108 18.4363C10.8504 18.6375 10.9717 18.8052 11.1364 18.9146C11.3061 19.0271 11.5221 19.078 11.7421 19.0394C11.9397 19.0048 12.1388 18.9642 12.3342 18.9182C12.7624 18.8178 13.0233 18.4089 12.9165 18.0056C12.8099 17.6018 12.3765 17.3562 11.948 17.4567Z" fill="#59ABFF"/>
<path d="M17.8579 7.36181C17.9139 7.52081 18.0208 7.65061 18.1558 7.74029C18.3559 7.87315 18.6178 7.91785 18.8678 7.83997C19.2868 7.70884 19.5139 7.283 19.3753 6.88829C19.3121 6.70835 19.242 6.52785 19.1674 6.3521C19.0034 5.96589 18.5386 5.77785 18.1285 5.93234C17.7189 6.08674 17.5193 6.52495 17.6834 6.91128C17.7461 7.059 17.8049 7.21063 17.8579 7.36181Z" fill="#59ABFF"/>
<path d="M14.5454 16.3815C14.4045 16.4692 14.259 16.5541 14.1124 16.6336C13.7299 16.8415 13.599 17.3022 13.8195 17.6624C13.8793 17.7604 13.9591 17.8405 14.0509 17.9017C14.2975 18.0652 14.6323 18.0897 14.911 17.9383C15.0853 17.8436 15.2586 17.7429 15.4265 17.6382C15.7946 17.409 15.8959 16.9418 15.6526 16.5947C15.4093 16.2475 14.9137 16.1522 14.5454 16.3815Z" fill="#59ABFF"/>
<path d="M19.8721 9.46529C19.8547 9.0496 19.4832 8.72605 19.042 8.74228C18.6013 8.75867 18.2577 9.10892 18.275 9.52445C18.2817 9.68333 18.2834 9.84458 18.2795 10.0033C18.2733 10.264 18.4086 10.4963 18.6188 10.636C18.7441 10.7191 18.8961 10.7694 19.0609 10.773C19.502 10.7822 19.8675 10.4525 19.8773 10.0366C19.8817 9.84695 19.8801 9.65481 19.8721 9.46529Z" fill="#59ABFF"/>
<path d="M17.7279 14.4002C17.3742 14.1501 16.8737 14.218 16.6088 14.5507C16.5074 14.6782 16.4005 14.804 16.2911 14.9252C16.0052 15.2417 16.0456 15.7172 16.3815 15.9868C16.4007 16.0021 16.42 16.0162 16.4401 16.0294C16.774 16.2513 17.2381 16.2003 17.5081 15.9017C17.6388 15.7571 17.7661 15.6068 17.8874 15.4546C18.1523 15.1218 18.0806 14.6499 17.7279 14.4002Z" fill="#59ABFF"/>
<path d="M18.9022 11.6776C18.481 11.5532 18.0326 11.7741 17.9006 12.171C17.8501 12.3226 17.7941 12.475 17.7337 12.6242C17.601 12.9527 17.7281 13.3141 18.0196 13.5077C18.073 13.5431 18.1319 13.5731 18.1959 13.5959C18.6082 13.7442 19.07 13.5493 19.2271 13.1605C19.2989 12.9831 19.3655 12.8018 19.4257 12.6216C19.5575 12.2246 19.3232 11.8021 18.9022 11.6776Z" fill="#59ABFF"/>
<path d="M8.46132 17.565C7.7468 17.4441 7.06139 17.2383 6.41144 16.9511C6.40375 16.9473 6.39687 16.943 6.38879 16.9396C6.23563 16.8716 6.08273 16.7988 5.93453 16.7228C5.93402 16.7222 5.93307 16.7219 5.93226 16.7216C5.66035 16.5804 5.39497 16.4243 5.13715 16.2533C1.37774 13.7576 0.473821 8.84481 3.12223 5.30199C3.69812 4.5319 4.39503 3.88943 5.17198 3.38023C5.18155 3.37394 5.19112 3.3677 5.20061 3.36138C7.93846 1.58359 11.656 1.46378 14.5632 3.29062L13.9388 4.14081C13.7652 4.37745 13.872 4.5499 14.1759 4.52413L16.8881 4.2953C17.1924 4.26952 17.3744 4.02148 17.2925 3.74457L16.5642 1.27159C16.4827 0.994359 16.2739 0.961174 16.1001 1.19778L15.4743 2.04998C13.3408 0.700329 10.782 0.185686 8.24213 0.600735C7.98633 0.642457 7.73411 0.693523 7.48535 0.752965C7.48343 0.753287 7.48189 0.753488 7.48035 0.753811C7.47074 0.756026 7.46099 0.758966 7.45164 0.761422C5.26151 1.29145 3.35065 2.49524 1.98713 4.21278C1.97563 4.22563 1.96379 4.23819 1.95294 4.25217C1.9076 4.30972 1.8626 4.36859 1.81854 4.42747C1.74649 4.52397 1.67546 4.62288 1.60752 4.72178C1.59901 4.73371 1.59252 4.74583 1.58508 4.75787C0.45989 6.40103 -0.0828351 8.30068 0.01024 10.2347C0.0104537 10.241 0.0100691 10.2474 0.01024 10.2539C0.0192569 10.4429 0.0351541 10.6344 0.0567348 10.823C0.0578887 10.8351 0.0607519 10.8466 0.0629313 10.8588C0.0852386 11.0484 0.113229 11.2384 0.148314 11.4285C0.504889 13.3671 1.4753 15.1116 2.92941 16.469C2.93279 16.4721 2.9363 16.4756 2.93971 16.4789C2.94091 16.4802 2.94223 16.4808 2.94339 16.482C3.33407 16.8451 3.75901 17.181 4.21657 17.4847C5.41398 18.2798 6.74733 18.8054 8.17927 19.0476C8.61375 19.1212 9.02879 18.8486 9.10673 18.4393C9.18464 18.0298 8.89567 17.6384 8.46132 17.565Z" fill="#59ABFF"/>
<path d="M9.4496 3.74341C9.09222 3.74341 8.80273 4.01646 8.80273 4.35277V10.4237L14.6945 13.294C14.7893 13.3402 14.8909 13.362 14.9908 13.362C15.2248 13.362 15.4508 13.2419 15.5657 13.0324C15.7296 12.7333 15.6056 12.3659 15.2883 12.2115L10.0957 9.68166V4.35277C10.0957 4.01646 9.80656 3.74341 9.4496 3.74341Z" fill="#59ABFF"/>
</svg>
