<svg width="50" height="50" viewBox="0 0 50 50" fill="none" xmlns="http://www.w3.org/2000/svg">
<path d="M44.5062 45.3158C36.8553 51.5614 12.9659 51.5614 5.47109 45.3158C-2.02368 39.0701 -1.39911 12.3701 5.47109 5.34383C12.3413 -1.68248 37.636 -1.68248 44.5062 5.34383C51.3764 12.3701 52.1571 39.0702 44.5062 45.3158Z" fill="#59ABFF"/>
<path d="M25.1448 34.3861C18.2746 39.851 10.6237 42.6615 3.44125 42.8177C-1.86746 33.7615 -0.774541 11.7458 5.47108 5.34404C11.0921 -0.43313 28.736 -1.52616 38.8851 2.06505C41.3833 12.3703 36.2307 25.4861 25.1448 34.3861Z" fill="#59ABFF"/>
<path d="M27.3307 22.0509C28.1114 20.9579 28.4238 19.8649 28.4238 18.9281C28.4238 17.9913 28.1115 17.0544 27.4869 16.4298C26.8624 15.8053 25.9256 15.3368 24.9887 15.3368C23.1149 15.3368 21.2413 16.7421 19.5237 19.3965L14.0588 16.2737C15.4641 14.0878 17.0254 12.3702 18.743 11.2772C20.4606 10.1843 22.6466 9.55975 25.1448 9.55975C27.643 9.55975 29.9851 10.3404 32.015 12.058C34.0448 13.7755 34.9816 15.9616 34.9816 18.7721C34.9816 20.3335 34.5132 21.8949 33.7325 23.3001C32.9518 24.7054 31.5465 26.5791 29.3606 28.7651L23.8956 34.3861H35.9184V40.4756H14.5272V35.4792L23.4273 26.423C25.3009 24.5492 26.55 23.1439 27.3307 22.0509Z" fill="white"/>
</svg>
