<svg width="50" height="50" viewBox="0 0 50 50" fill="none" xmlns="http://www.w3.org/2000/svg">
<path d="M44.5175 45.3158C36.8666 51.5614 12.9771 51.5614 5.48237 45.3158C-2.16852 39.0701 -1.38783 12.3701 5.48237 5.34383C12.3526 -1.68248 37.6473 -1.68248 44.5175 5.34383C51.3877 12.3701 52.1684 39.0702 44.5175 45.3158Z" fill="#59ABFF"/>
<path d="M25.1562 34.3861C18.286 39.851 10.6351 42.6615 3.45267 42.8177C-1.85615 33.7615 -0.76312 11.7458 5.4825 5.34403C11.1036 -0.43313 28.7474 -1.52616 38.8966 2.06505C41.3948 12.3703 36.2422 25.4861 25.1562 34.3861Z" fill="#59ABFF"/>
<path d="M15.9439 15.493V9.71585H34.3684V14.4001L28.1228 21.4264C30.4649 21.8949 32.3386 22.8317 33.7438 24.5492C34.993 26.1105 35.7737 27.9843 35.7737 30.1702C35.7737 33.293 34.6807 35.7913 32.4947 37.665C30.3088 39.5387 27.6543 40.3194 24.2192 40.3194C20.9403 40.3194 17.5052 39.0702 14.0702 36.7282L16.8807 31.4194C19.6912 33.4492 22.3456 34.386 24.5316 34.386C25.9368 34.386 27.0299 34.0738 27.8106 33.4492C28.7474 32.8246 29.0597 31.8878 29.0597 30.6387C29.0597 29.3895 28.5913 28.4527 27.4983 27.672C26.5615 26.8913 25.1563 26.579 23.2825 26.579C22.3457 26.579 20.9405 26.8912 19.2229 27.3597V22.3632L25 15.493H15.9439Z" fill="white"/>
</svg>
