<svg width="50" height="50" viewBox="0 0 50 50" fill="none" xmlns="http://www.w3.org/2000/svg">
<path d="M44.5175 45.3157C36.8666 51.5614 12.9772 51.5614 5.48238 45.3157C-2.1685 39.0701 -1.38781 12.3701 5.48238 5.34383C12.3526 -1.68248 37.6473 -1.68248 44.5175 5.34383C51.3877 12.3701 52.1684 39.0702 44.5175 45.3157Z" fill="#59ABFF"/>
<path d="M25.1562 34.386C18.286 39.851 10.6351 42.6615 3.45265 42.8176C-1.85617 33.7615 -0.763135 11.7457 5.48249 5.34397C11.1035 -0.433191 28.7474 -1.52622 38.8965 2.06499C41.3947 12.3703 36.2421 25.486 25.1562 34.386Z" fill="#59ABFF"/>
<path d="M18.9106 9.87198H31.0894V40.0071H24.6877V15.6491H18.9106V9.87198Z" fill="white"/>
</svg>
