<svg width="50" height="50" viewBox="0 0 50 50" fill="none" xmlns="http://www.w3.org/2000/svg">
<path d="M44.5175 45.3157C36.8666 51.5613 12.9771 51.5613 5.48236 45.3157C-2.16853 39.0701 -1.38784 12.3701 5.48236 5.3438C12.3526 -1.68251 37.6473 -1.68251 44.5175 5.3438C51.3877 12.3701 52.1684 39.0702 44.5175 45.3157Z" fill="#59ABFF"/>
<path d="M25.1562 34.3861C18.286 39.851 10.6351 42.6615 3.45265 42.8177C-1.85617 33.7615 -0.763135 11.7458 5.48249 5.34404C11.1035 -0.43313 28.7474 -1.52616 38.8965 2.06505C41.3947 12.3703 36.2421 25.4861 25.1562 34.3861Z" fill="#59ABFF"/>
<path d="M33.9 9.71588V15.6492H22.0333V20.6456C22.9701 20.3334 23.9071 20.3334 25.1561 20.3334C28.1227 20.3334 30.621 21.2702 32.6509 22.9878C34.6807 24.7054 35.7736 27.0475 35.7736 30.1702C35.7736 33.1369 34.6806 35.6352 32.4946 37.5088C30.3087 39.3824 27.6543 40.4754 24.3753 40.4754C20.3156 40.4754 16.8805 38.914 14.07 35.9474L17.6612 30.9509C17.9735 31.2632 18.2858 31.5755 18.7542 31.8877C19.2227 32.2 20.0034 32.8245 21.0963 33.4491C22.1893 34.0737 23.4384 34.3859 24.5314 34.3859C25.6244 34.3859 26.7174 34.0737 27.6542 33.2929C28.591 32.6683 29.0594 31.5754 29.0594 30.1701C29.0594 28.7649 28.591 27.8281 27.6542 27.0474C26.7174 26.2667 25.4682 25.9543 23.9068 25.9543C22.3455 25.9543 20.6279 26.5789 18.598 27.6718L15.7875 24.7052V9.71588H33.9Z" fill="white"/>
</svg>
