<svg width="50" height="50" viewBox="0 0 50 50" fill="none" xmlns="http://www.w3.org/2000/svg">
<path d="M44.5062 45.3158C36.8553 51.5614 12.9658 51.5614 5.47104 45.3158C-2.02373 39.0702 -1.39916 12.3702 5.47104 5.34386C12.3412 -1.68245 37.636 -1.68245 44.5062 5.34386C51.3764 12.3702 52.157 39.0703 44.5062 45.3158Z" fill="#59ABFF"/>
<path d="M25.1447 34.3861C18.2745 39.851 10.6236 42.6615 3.44122 42.8177C-1.86748 33.7615 -0.774564 11.7458 5.47106 5.34403C11.0921 -0.43313 28.7359 -1.52616 38.8851 2.06505C41.3833 12.3703 36.2307 25.4861 25.1447 34.3861Z" fill="#59ABFF"/>
<path d="M26.0816 27.0474V21.7385H32.4833V27.0474H35.9184V32.8245H32.4833V40.0069H26.0816V32.8245H13.9026V27.6719L24.6763 9.87198H32.0148L21.7095 27.0474H26.0816Z" fill="white"/>
</svg>
