<svg width="50" height="50" viewBox="0 0 50 50" fill="none" xmlns="http://www.w3.org/2000/svg">
<path d="M16.8506 38.2717C16.8379 38.2092 16.8193 38.1476 16.7949 38.0881C16.7705 38.0295 16.7402 37.9728 16.7051 37.9201C16.6699 37.8664 16.6289 37.8166 16.584 37.7717C16.5391 37.7267 16.4893 37.6857 16.4355 37.6506C16.3828 37.6154 16.3262 37.5851 16.2666 37.5607C16.208 37.5363 16.1465 37.5168 16.084 37.5051C15.958 37.4797 15.8281 37.4797 15.7031 37.5051C15.6406 37.5168 15.5791 37.5363 15.5195 37.5607C15.4609 37.5851 15.4043 37.6154 15.3516 37.6506C15.2979 37.6857 15.248 37.7267 15.2031 37.7717C15.1582 37.8166 15.1172 37.8664 15.082 37.9201C15.0459 37.9728 15.0166 38.0295 14.9922 38.0881C14.9678 38.1476 14.9482 38.2092 14.9365 38.2717C14.9238 38.3342 14.917 38.3986 14.917 38.4621C14.917 38.5256 14.9238 38.59 14.9365 38.6525C14.9482 38.715 14.9678 38.7766 14.9922 38.8351C15.0166 38.8947 15.0459 38.9514 15.082 39.0041C15.1172 39.0578 15.1582 39.1076 15.2031 39.1525C15.248 39.1975 15.2979 39.2385 15.3516 39.2736C15.4043 39.3089 15.4609 39.3392 15.5195 39.3636C15.5791 39.388 15.6406 39.4075 15.7031 39.4192C15.7656 39.4319 15.8301 39.4388 15.8936 39.4388C15.957 39.4388 16.0215 39.4319 16.084 39.4192C16.1465 39.4075 16.208 39.388 16.2666 39.3636C16.3262 39.3392 16.3828 39.3088 16.4355 39.2736C16.4893 39.2385 16.5391 39.1975 16.584 39.1525C16.6289 39.1076 16.6699 39.0578 16.7051 39.0041C16.7402 38.9514 16.7705 38.8947 16.7949 38.8351C16.8193 38.7766 16.8379 38.715 16.8506 38.6525C16.8633 38.59 16.8701 38.5256 16.8701 38.4621C16.8701 38.3986 16.8633 38.3342 16.8506 38.2717Z" fill="#59ABFF"/>
<path d="M44.9212 38.5724C44.9174 38.5627 44.9135 38.553 44.9094 38.5434C44.0105 36.4402 41.9025 35.6629 39.4078 36.5149L32.6043 38.3964C32.2109 37.2052 31.2298 36.1915 29.8425 35.6766C29.8339 35.6735 29.8253 35.6704 29.8166 35.6675L22.338 33.1292C21.7155 32.3246 19.7657 30.2658 16.115 30.2658C13.5638 30.2658 11.3068 32.016 10.0156 33.9237H0.976562C0.437207 33.9237 0 34.3609 0 34.9003V47.2125C0 47.7518 0.437207 48.1891 0.976562 48.1891H6.78291C7.32227 48.1891 7.75947 47.7518 7.75947 47.2125V46.3693H10.4824C11.0218 46.3693 11.459 45.9321 11.459 45.3928V45.1117C13.0463 45.2502 13.5684 45.5513 15.0262 46.3919C16.1473 47.0384 17.8417 48.0154 20.8931 49.3874C20.9072 49.3937 20.9216 49.3998 20.9359 49.4055C21.5216 49.6358 22.6664 49.9977 24.0778 49.9977C25.0603 49.9977 26.1721 49.8223 27.3133 49.305L42.3515 43.9206C42.3782 43.911 42.4046 43.9003 42.4304 43.8884C43.8676 43.2271 46.0093 41.3636 44.9212 38.5724ZM5.80635 46.2358H1.95312V35.8767H5.80635V46.2358ZM9.50586 44.4161H7.75947V35.8767H9.50586V44.4161ZM41.65 42.0971L26.6186 47.479C26.6054 47.4837 26.5875 47.4907 26.5745 47.496C26.5613 47.5014 26.5481 47.507 26.5352 47.513C24.4417 48.4751 22.4518 47.8991 21.6719 47.5959C18.7244 46.2696 17.1513 45.3625 16.0019 44.6997C14.4038 43.7782 13.6338 43.3341 11.459 43.1545V35.289C12.3847 33.7719 14.1798 32.2188 16.1151 32.2188C19.4341 32.2188 20.8404 34.3775 20.8957 34.4646C21.0149 34.6586 21.1982 34.8048 21.4138 34.8779L29.175 37.5121C30.4146 37.9773 31.0696 39.0389 30.7686 40.0974C30.6296 40.5863 30.3085 40.9918 29.8645 41.2391C29.4244 41.4844 28.9156 41.545 28.4307 41.4108L19.6813 38.6382C19.1669 38.4752 18.6183 38.7599 18.4554 39.2741C18.2924 39.7883 18.5771 40.3371 19.0913 40.5001L27.8559 43.2775C27.8651 43.2805 27.8744 43.2833 27.8838 43.2859C28.2337 43.3854 28.5899 43.4347 28.944 43.4347C29.5923 43.4347 30.2334 43.2695 30.8152 42.9453C31.7149 42.444 32.3655 41.6224 32.6472 40.6316C32.6696 40.5525 32.6896 40.4734 32.7068 40.3943L40.0392 38.3631C41.0981 38.0014 42.4883 37.871 43.1072 39.2965C43.7479 40.97 42.0828 41.8906 41.65 42.0971Z" fill="#59ABFF"/>
<path d="M35.0645 12.846C35.0518 12.7835 35.0332 12.722 35.0078 12.6624C34.9834 12.6038 34.9541 12.5472 34.918 12.4944C34.8828 12.4407 34.8418 12.3909 34.7969 12.346C34.752 12.3011 34.7021 12.2601 34.6484 12.2249C34.5957 12.1898 34.5391 12.1595 34.4805 12.1351C34.4209 12.1107 34.3594 12.0911 34.2979 12.0794C34.1719 12.054 34.042 12.054 33.916 12.0794C33.8535 12.0911 33.792 12.1107 33.7334 12.1351C33.6738 12.1595 33.6172 12.1898 33.5645 12.2249C33.5107 12.2601 33.4609 12.3011 33.416 12.346C33.3711 12.3909 33.3301 12.4407 33.2949 12.4944C33.2598 12.5472 33.2295 12.6038 33.2051 12.6624C33.1807 12.722 33.1611 12.7835 33.1494 12.846C33.1367 12.9085 33.1299 12.973 33.1299 13.0364C33.1299 13.0999 33.1367 13.1644 33.1494 13.2269C33.1611 13.2894 33.1807 13.3509 33.2051 13.4095C33.2295 13.4691 33.2598 13.5257 33.2949 13.5784C33.3301 13.6321 33.3711 13.6819 33.416 13.7269C33.4609 13.7718 33.5107 13.8128 33.5645 13.848C33.6172 13.8831 33.6738 13.9134 33.7334 13.9378C33.792 13.9622 33.8535 13.9808 33.916 13.9935C33.9785 14.0062 34.043 14.013 34.1064 14.013C34.1699 14.013 34.2344 14.0062 34.2979 13.9935C34.3594 13.9808 34.4209 13.9622 34.4805 13.9378C34.5391 13.9134 34.5957 13.8831 34.6484 13.848C34.7021 13.8128 34.752 13.7718 34.7969 13.7269C34.8418 13.6819 34.8828 13.6321 34.918 13.5784C34.9541 13.5257 34.9834 13.4691 35.0078 13.4095C35.0332 13.3509 35.0518 13.2894 35.0645 13.2269C35.0771 13.1644 35.083 13.0999 35.083 13.0364C35.083 12.973 35.0771 12.9085 35.0645 12.846Z" fill="#59ABFF"/>
<path d="M49.0234 3.30966H43.217C42.6777 3.30966 42.2405 3.74686 42.2405 4.28622V5.12938H39.5175C38.9782 5.12938 38.5409 5.56659 38.5409 6.10595V6.387C36.9536 6.24843 36.4316 5.94745 34.9739 5.10682C33.8528 4.46034 32.1583 3.48329 29.1069 2.11132C29.0927 2.10487 29.0784 2.09891 29.0639 2.09325C28.0706 1.70243 25.4674 0.933484 22.687 2.19354L18.7574 3.60057L15.4449 0.288269C15.0636 -0.0930786 14.4452 -0.0930786 14.0639 0.288269L3.18909 11.163C2.83733 11.5148 2.76985 12.1249 3.18909 12.5441L21.7718 31.1268C22.0692 31.4243 22.7655 31.5142 23.153 31.1268L33.0812 21.1987C33.3393 21.221 33.6072 21.233 33.8848 21.233C36.4362 21.233 38.693 19.4828 39.9841 17.5752H49.0234C49.5627 17.5752 49.9999 17.138 49.9999 16.5986V4.28622C49.9999 3.74686 49.5627 3.30966 49.0234 3.30966ZM14.7543 2.35985L16.9801 4.58563C16.3185 4.99481 15.5535 5.21376 14.7543 5.21376C13.955 5.21376 13.1902 4.99491 12.5285 4.58563L14.7543 2.35985ZM7.48655 14.0794L5.26077 11.8535L7.48655 9.62772C7.89573 10.2893 8.11468 11.0543 8.11468 11.8535C8.11468 12.6527 7.89583 13.4177 7.48655 14.0794ZM22.4624 29.0552L20.237 26.8298C21.5957 25.9913 23.3289 25.9913 24.6877 26.8298L22.4624 29.0552ZM26.0948 25.4229C23.9367 23.8575 20.9881 23.8575 18.8301 25.4229L8.89348 15.4862C9.65608 14.4374 10.0678 13.1775 10.0678 11.8535C10.0678 10.5294 9.65618 9.26962 8.89348 8.22079L11.1217 5.99266C12.1705 6.75526 13.4303 7.16698 14.7544 7.16698C16.0785 7.16698 17.3383 6.75526 18.3871 5.99266L20.4993 8.10487C20.0436 8.17216 19.5991 8.32235 19.1847 8.55331C18.4847 8.94335 17.9355 9.52743 17.5935 10.2341C16.4919 10.4381 15.4721 10.9714 14.6721 11.7713C12.5017 13.9418 12.5017 17.4733 14.6722 19.6438C15.7574 20.729 17.1828 21.2717 18.6084 21.2717C20.0339 21.2717 21.4595 20.7291 22.5448 19.6438C23.2508 18.9378 23.7454 18.07 23.9932 17.1243L27.2905 18.2433C26.9193 19.9629 27.2994 21.7719 28.3249 23.1928L26.0948 25.4229ZM20.1574 15.8221C20.166 15.8252 20.1746 15.8283 20.1833 15.8312L22.1361 16.494C21.9886 17.1596 21.6549 17.7715 21.1637 18.2628C19.7547 19.6716 17.4621 19.6718 16.0533 18.2628C14.6444 16.8539 14.6444 14.5614 16.0533 13.1524C16.3932 12.8124 16.7943 12.5467 17.2313 12.3665C17.4116 13.8667 18.4917 15.2039 20.1574 15.8221ZM29.7321 21.7855C29.3551 21.1713 29.1418 20.4702 29.1081 19.7547C29.5759 20.0929 30.1476 20.4242 30.8304 20.6872L29.7321 21.7855ZM38.5408 16.2093C37.6153 17.7266 35.8201 19.2797 33.8848 19.2797C33.5227 19.2797 33.1833 19.2539 32.866 19.208C32.8648 19.2078 32.8635 19.2076 32.8622 19.2074C30.7533 18.9011 29.6188 17.7024 29.2449 17.2278C29.2249 17.1985 29.1401 17.0875 29.1275 17.069C29.0137 16.8657 28.8272 16.7022 28.5893 16.6215L20.8248 13.9862C19.5858 13.5212 18.9308 12.4601 19.231 11.4019C19.2312 11.4013 19.2314 11.4006 19.2316 11.3999C19.2319 11.3991 19.2321 11.3982 19.2323 11.3974C19.3718 10.9101 19.6923 10.5059 20.1353 10.2592C20.5753 10.014 21.084 9.95311 21.5692 10.0876L30.3185 12.8601C30.8327 13.0233 31.3816 12.7384 31.5445 12.2242C31.7074 11.71 31.4227 11.1612 30.9085 10.9982L23.95 8.79315L23.8893 8.73241C23.8887 8.73182 23.8881 8.73114 23.8874 8.73055L20.2849 5.12802L23.3814 4.01923C23.3918 4.01542 23.4047 4.01063 23.4151 4.00643C23.4177 4.00536 23.4228 4.00341 23.4253 4.00233C23.4386 3.99696 23.4517 3.9913 23.4647 3.98534C25.558 3.02323 27.5479 3.59911 28.3279 3.90243C31.2754 5.2287 32.8487 6.13583 33.9981 6.79862C35.5961 7.7202 36.3661 8.16425 38.5408 8.34384V16.2093ZM42.2405 15.6219H40.4941V7.08251H42.2405V15.6219ZM48.0468 15.6219H44.1936V5.26278H48.0468V15.6219Z" fill="#59ABFF"/>
</svg>
