<svg width="50" height="50" viewBox="0 0 50 50" fill="none" xmlns="http://www.w3.org/2000/svg">
<g clip-path="url(#clip0)">
<path d="M36.8212 24.9869L49.5714 12.2217C49.8463 11.9465 50.0005 11.5732 50 11.1842C49.9994 10.7953 49.844 10.4226 49.5683 10.1482L39.8016 0.430362C39.2292 -0.13925 38.3038 -0.138176 37.7326 0.432901L25 13.1656L14.3373 2.50306C14.1243 2.28998 13.8508 2.14779 13.5541 2.09594L1.71728 0.0244167C1.24718 -0.0576121 0.766431 0.0941412 0.428941 0.431631C0.091451 0.769122 -0.0604 1.24987 0.0220194 1.71997L2.09491 13.5555C2.14686 13.8524 2.28924 14.1262 2.50261 14.3391L13.171 24.9946L0.429625 37.7359C0.154926 38.0106 0.000535679 38.3832 0.000535679 38.7716C0.000535679 39.1602 0.154926 39.5327 0.429625 39.8074L10.1937 49.5714C10.4684 49.8462 10.8409 50.0004 11.2294 50.0004H11.2298C11.6185 50.0003 11.9911 49.8457 12.2657 49.5708L25.0063 36.8155L37.7799 49.5733C38.0547 49.8477 38.4269 50.0017 38.8151 50.0017H38.8174C39.2063 50.0012 39.5791 49.8457 39.8534 49.57L49.5713 39.8032C50.1409 39.2308 50.1397 38.3053 49.5687 37.7343L36.8212 24.9869ZM30.0751 12.2335L33.1825 15.3409C33.4685 15.627 33.8434 15.77 34.2183 15.77C34.5932 15.77 34.9681 15.627 35.254 15.3409C35.826 14.7689 35.826 13.8414 35.254 13.2693L32.1467 10.162L34.9578 7.35086L38.0651 10.4582C38.3512 10.7443 38.7261 10.8873 39.101 10.8873C39.4758 10.8873 39.8507 10.7443 40.1367 10.4582C40.7087 9.88624 40.7087 8.95873 40.1367 8.38667L37.0293 5.27934L38.7711 3.5376L46.4617 11.1897L34.7497 22.9153L27.0715 15.2372L30.0751 12.2335ZM10.273 4.49587L4.49435 10.2746L3.26753 3.26993L10.273 4.49587ZM11.2288 46.4635L3.53696 38.7716L5.27646 37.0321L8.38379 40.1395C8.66971 40.4255 9.0447 40.5685 9.4195 40.5685C9.79439 40.5685 10.1693 40.4255 10.4552 40.1395C11.0273 39.5675 11.0273 38.64 10.4552 38.0679L7.34788 34.9606L10.159 32.1495L13.2664 35.2568C13.5523 35.5428 13.9273 35.6859 14.3022 35.6859C14.6771 35.6859 15.052 35.5428 15.3379 35.2568C15.9099 34.6848 15.9099 33.7573 15.3379 33.1853L12.2305 30.0779L15.2437 27.0648L22.9335 34.7451L11.2288 46.4635ZM38.8118 46.4634L5.60975 13.3022L8.41894 10.493L41.5937 43.6677L38.8118 46.4634ZM43.6599 41.5909L10.4905 8.42144L13.3016 5.61029L46.464 38.7727L43.6599 41.5909Z" fill="#59ABFF"/>
</g>
<defs>
<clipPath id="clip0">
<rect width="50" height="50" fill="white"/>
</clipPath>
</defs>
</svg>
