<svg width="50" height="50" viewBox="0 0 50 50" fill="none" xmlns="http://www.w3.org/2000/svg">
<path d="M14.9806 30V28.3333C7.64743 28.3333 1.64727 22.4166 1.64727 15C1.64727 7.58342 7.56401 1.66667 14.9806 1.66667C18.2309 1.66667 21.3974 2.83325 23.8974 5C20.3973 8.91683 19.2307 14.3335 20.7309 19.4165L22.3142 18.9168C20.9808 14.4999 21.9809 9.66675 25.064 6.16659C28.1475 9.66675 29.1473 14.4165 27.8143 18.9168L29.3975 19.4165C30.8973 14.4165 29.7308 8.91683 26.2306 5C31.6473 0.166829 40.064 0.666504 44.9806 6.16659C49.8976 11.6667 49.3141 20.0834 43.814 25C41.3974 27.1667 38.2309 28.3333 34.9806 28.3333V30C43.2309 30 49.9806 23.3333 49.9806 15C49.9806 6.66667 43.3139 0 34.9806 0C31.314 0 27.7308 1.33341 24.9806 3.83341C18.814 -1.66667 9.31409 -1.16659 3.81401 5C-1.68607 11.1666 -1.18599 20.6665 4.9806 26.1666C7.73084 28.6666 11.314 30 14.9806 30Z" fill="#59ABFF"/>
<path d="M11.3975 39.1666L8.89746 50H40.9808L38.4808 39.1666C38.231 38.2499 37.4806 37.5 36.5643 37.2501L30.3143 36.0001L31.8141 33.0001C32.2308 32.1667 32.3976 31.3334 32.3976 30.4166V25C32.3976 22.6668 30.5641 20.8333 28.231 20.8333H21.5643C19.2307 20.8333 17.3976 22.6668 17.3976 25V30.5001C17.3976 31.4168 17.6475 32.3332 17.9807 33.0835L19.481 36.0832L13.231 37.3332C12.3976 37.5 11.6473 38.2499 11.3975 39.1666ZM36.8975 39.5833L38.8975 48.3333H25.814V46.1666L32.8973 38.2499L36.2306 38.9168C36.5643 38.9998 36.8141 39.2501 36.8975 39.5833ZM30.9808 37.9166L25.814 43.6666V40.4166L29.3975 37.5834L30.9808 37.9166ZM21.6473 22.5H28.314C29.7308 22.5 30.814 23.5832 30.814 25V27.2501C27.3976 24.6667 22.564 24.6667 19.1473 27.2501V25C19.1473 23.5832 20.2309 22.5 21.6473 22.5ZM19.1473 30.5001V29.4999C22.2308 26.25 27.3142 26.1666 30.5641 29.2501C30.6475 29.3335 30.731 29.4165 30.814 29.4999V30.5001C30.814 31.1666 30.6475 31.7501 30.3973 32.3332L28.4808 36.0832L24.9806 38.9168L21.4809 36.0832L19.564 32.3332C19.3141 31.7501 19.1473 31.1666 19.1473 30.5001ZM20.5641 37.5834L24.1473 40.4166V43.8334L18.314 38.0001L20.5641 37.5834ZM16.3975 38.4167L24.1473 46.1666V48.3333H11.0642L13.0641 39.5833C13.1475 39.2501 13.3974 38.9998 13.7306 38.9168L16.3975 38.4167Z" fill="#59ABFF"/>
<path d="M33.064 20.5835L37.4805 16.1666L41.8975 20.5835L43.064 19.4165L38.6475 15L43.064 10.5835L41.8975 9.4165L37.4805 13.8334L33.064 9.4165L31.8975 10.5835L36.314 15L31.8975 19.4165L33.064 20.5835Z" fill="#59ABFF"/>
<path d="M16.8971 9.4165L8.31356 18.0001L6.39705 16.0832L5.23047 17.2502L8.31356 20.3333L18.0637 10.5835L16.8971 9.4165Z" fill="#59ABFF"/>
<path d="M14.9805 44.1667H19.1471V45.8334H14.9805V44.1667Z" fill="#59ABFF"/>
<path d="M30.8135 44.1667H34.9801V45.8334H30.8135V44.1667Z" fill="#59ABFF"/>
</svg>
