<svg width="50" height="50" viewBox="0 0 50 50" fill="none" xmlns="http://www.w3.org/2000/svg">
<g clip-path="url(#clip0)">
<path d="M7.35236 42.6477C9.64327 44.9385 12.3119 46.7374 15.2843 47.9947C18.3636 49.2971 21.6324 49.9574 25 49.9574C28.3675 49.9574 31.6364 49.2971 34.7156 47.9947C37.688 46.7374 40.3567 44.9384 42.6476 42.6477C44.9385 40.3567 46.7376 37.6881 47.9946 34.7157C49.2971 31.6364 49.9575 28.3675 49.9575 25.0001C49.9575 21.6324 49.2971 18.3636 47.9946 15.2844C46.7376 12.312 44.9384 9.64339 42.6476 7.35248C40.3567 5.06157 37.688 3.26257 34.7156 2.0054C31.6363 0.702908 28.3675 0.0426025 25 0.0426025C21.6324 0.0426025 18.3636 0.702993 15.2843 2.0054C12.3119 3.26257 9.64327 5.06165 7.35236 7.35248C5.06145 9.64331 3.26245 12.312 2.0052 15.2843C0.702871 18.3636 0.0424805 21.6324 0.0424805 25.0001C0.0424805 28.3676 0.702871 31.6364 2.00528 34.7157C3.26245 37.6881 5.06153 40.3567 7.35236 42.6477ZM25 3.68602C36.7714 3.68602 46.3139 13.2286 46.3139 25.0001C46.3139 36.7714 36.7714 46.314 25 46.314C13.2285 46.314 3.6859 36.7714 3.6859 25.0001C3.6859 13.2286 13.2285 3.68602 25 3.68602Z" fill="#59ABFF"/>
<path d="M25 50.0008C21.6264 50.0008 18.3521 49.3393 15.2677 48.0348C12.2902 46.7753 9.61703 44.9732 7.32238 42.6786C5.02756 40.3837 3.22549 37.7104 1.9662 34.7331C0.661496 31.6485 0 28.3741 0 25.001C0 21.6278 0.661496 18.3533 1.96612 15.2686C3.22541 12.2913 5.02756 9.61809 7.32229 7.32327C9.61703 5.02845 12.2903 3.22639 15.2676 1.96709C18.3523 0.662472 21.6267 0.000976562 24.9999 0.000976562C28.3734 0.000976562 31.6478 0.662472 34.7321 1.96718C37.7095 3.22647 40.3827 5.02862 42.6776 7.32336C44.9725 9.61835 46.7746 12.2915 48.0338 15.2687C49.3385 18.3534 50 21.6278 50 25.001C50 28.3741 49.3385 31.6485 48.0338 34.7332C46.7746 37.7104 44.9726 40.3836 42.6776 42.6787C40.3829 44.9732 37.7096 46.7753 34.7321 48.0349C31.6478 49.3393 28.3734 50.0008 25 50.0008ZM25 0.0860236C21.6382 0.0860236 18.375 0.745223 15.3009 2.04542C12.3337 3.30046 9.66951 5.0964 7.38251 7.3834C5.09542 9.67048 3.29948 12.3346 2.04445 15.3017C0.744247 18.3759 0.085047 21.6392 0.085047 25.001C0.085047 28.3626 0.744247 31.626 2.04445 34.7001C3.29948 37.6673 5.09542 40.3314 7.38251 42.6185C9.66942 44.9053 12.3335 46.7012 15.3009 47.9564C18.3747 49.2566 21.6379 49.9158 25 49.9158C28.3621 49.9158 31.6252 49.2566 34.6991 47.9564C37.6664 46.7012 40.3306 44.9053 42.6175 42.6185C44.9047 40.3311 46.7005 37.667 47.9554 34.7001C49.2557 31.626 49.915 28.3627 49.915 25.001C49.915 21.6392 49.2557 18.3759 47.9554 15.3019C46.7006 12.3348 44.9047 9.67074 42.6175 7.38348C40.3304 5.09648 37.6662 3.30055 34.6991 2.04551C31.6252 0.745223 28.3619 0.0860236 25 0.0860236ZM25 46.3574C19.2955 46.3574 13.9323 44.136 9.89862 40.1023C5.86493 36.0685 3.64341 30.7055 3.64341 25.001C3.64341 19.2964 5.86484 13.9333 9.89862 9.8996C13.9323 5.8659 19.2955 3.64439 25 3.64439C30.7045 3.64439 36.0676 5.8659 40.1013 9.8996C44.1351 13.9334 46.3565 19.2964 46.3565 25.001C46.3565 30.7055 44.1351 36.0686 40.1013 40.1023C36.0676 44.136 30.7044 46.3574 25 46.3574ZM25 3.72944C19.3182 3.72944 13.9765 5.94211 9.95875 9.95973C5.94113 13.9774 3.72846 19.3192 3.72846 25.001C3.72846 30.6828 5.94113 36.0245 9.95875 40.0421C13.9764 44.0597 19.3182 46.2723 25 46.2723C30.6818 46.2723 36.0235 44.0597 40.0412 40.0421C44.0588 36.0245 46.2715 30.6827 46.2715 25.001C46.2715 19.3192 44.0588 13.9774 40.0412 9.95973C36.0235 5.94202 30.6818 3.72944 25 3.72944Z" fill="#59ABFF"/>
<path d="M19.4748 34.0864C19.8164 34.4281 20.2798 34.6199 20.7629 34.6199C21.2461 34.6199 21.7094 34.428 22.051 34.0864L37.6475 18.49C38.3589 17.7786 38.3589 16.6252 37.6475 15.9138C36.936 15.2024 35.7826 15.2023 35.0711 15.9138L20.7629 30.2221L14.9282 24.3873C14.2167 23.6758 13.0633 23.6758 12.3519 24.3873C11.6405 25.0987 11.6405 26.2521 12.3519 26.9635L19.4748 34.0864Z" fill="#59ABFF"/>
<path d="M20.7631 34.6624C20.2651 34.6624 19.7969 34.4685 19.4448 34.1164L12.322 26.9935C11.5952 26.2666 11.5952 25.084 12.322 24.3571C12.6741 24.0049 13.1422 23.811 13.6402 23.811C14.1381 23.811 14.6062 24.0049 14.9584 24.3571L20.7631 30.1618L35.0413 15.8836C35.3934 15.5314 35.8615 15.3376 36.3595 15.3376C36.8574 15.3376 37.3255 15.5315 37.6777 15.8836C38.0299 16.2357 38.2238 16.7039 38.2238 17.2018C38.2238 17.6998 38.0299 18.1679 37.6777 18.52L22.0813 34.1164C21.7293 34.4685 21.2611 34.6624 20.7631 34.6624ZM13.6402 23.8961C13.165 23.8961 12.7182 24.0812 12.3822 24.4173C11.6885 25.111 11.6885 26.2397 12.3822 26.9334L19.505 34.0563C19.8411 34.3923 20.2878 34.5773 20.7631 34.5773C21.2384 34.5773 21.6851 34.3923 22.0212 34.0563L37.6175 18.4599C37.9535 18.1239 38.1387 17.6771 38.1387 17.2019C38.1387 16.7267 37.9535 16.2798 37.6175 15.9438C37.2815 15.6077 36.8346 15.4227 36.3594 15.4227C35.8842 15.4227 35.4373 15.6078 35.1013 15.9438L20.7631 30.2821L14.8982 24.4173C14.5622 24.0812 14.1154 23.8961 13.6402 23.8961Z" fill="#59ABFF"/>
</g>
<defs>
<clipPath id="clip0">
<rect width="50" height="50" fill="white"/>
</clipPath>
</defs>
</svg>
