<svg width="50" height="50" viewBox="0 0 50 50" fill="none" xmlns="http://www.w3.org/2000/svg">
<path d="M37.8382 48.6487H12.1626C11.2669 48.6476 10.4082 48.2913 9.77487 47.658C9.14153 47.0247 8.78525 46.166 8.78418 45.2703V4.72976C8.78525 3.83409 9.14153 2.9754 9.77487 2.34207C10.4082 1.70873 11.2669 1.35245 12.1626 1.35138H37.8382C38.7339 1.35245 39.5926 1.70873 40.2259 2.34207C40.8593 2.9754 41.2155 3.83409 41.2166 4.72976V45.2703C41.2155 46.166 40.8593 47.0247 40.2259 47.658C39.5926 48.2913 38.7339 48.6476 37.8382 48.6487ZM12.1626 2.70273C11.625 2.70273 11.1094 2.91629 10.7292 3.29643C10.3491 3.67657 10.1355 4.19216 10.1355 4.72976V45.2703C10.1355 45.8079 10.3491 46.3235 10.7292 46.7036C11.1094 47.0838 11.625 47.2973 12.1626 47.2973H37.8382C38.3758 47.2973 38.8914 47.0838 39.2716 46.7036C39.6517 46.3235 39.8653 45.8079 39.8653 45.2703V4.72976C39.8653 4.19216 39.6517 3.67657 39.2716 3.29643C38.8914 2.91629 38.3758 2.70273 37.8382 2.70273H12.1626Z" fill="#59ABFF"/>
<path d="M9.45996 41.8919H40.541V43.2433H9.45996V41.8919Z" fill="#59ABFF"/>
<path d="M22.9736 44.5946H27.0277V45.946H22.9736V44.5946Z" fill="#59ABFF"/>
<path d="M9.45996 6.75677H40.541V8.10813H9.45996V6.75677Z" fill="#59ABFF"/>
<path d="M21.6221 4.05408H28.3788V5.40543H21.6221V4.05408Z" fill="#59ABFF"/>
<path d="M25.0003 35.8108C22.8621 35.8108 20.7719 35.1768 18.9941 33.9889C17.2163 32.801 15.8306 31.1126 15.0124 29.1371C14.1941 27.1617 13.98 24.988 14.3972 22.8909C14.8143 20.7938 15.844 18.8675 17.3559 17.3556C18.8678 15.8437 20.7941 14.8141 22.8912 14.3969C24.9883 13.9798 27.162 14.1939 29.1374 15.0121C31.1128 15.8304 32.8012 17.216 33.9891 18.9939C35.177 20.7717 35.8111 22.8618 35.8111 25C35.8079 27.8662 34.6678 30.6141 32.6411 32.6409C30.6144 34.6676 27.8665 35.8076 25.0003 35.8108ZM25.0003 15.5406C23.1294 15.5406 21.3005 16.0954 19.7449 17.1348C18.1893 18.1742 16.9768 19.6516 16.2609 21.38C15.5449 23.1085 15.3576 25.0105 15.7226 26.8455C16.0876 28.6804 16.9885 30.3659 18.3114 31.6889C19.6344 33.0118 21.3199 33.9127 23.1548 34.2777C24.9898 34.6427 26.8918 34.4554 28.6202 33.7394C30.3487 33.0235 31.8261 31.811 32.8655 30.2554C33.9049 28.6998 34.4597 26.8709 34.4597 25C34.4569 22.4921 33.4593 20.0877 31.686 18.3143C29.9126 16.541 27.5082 15.5434 25.0003 15.5406Z" fill="#59ABFF"/>
<path d="M22.9732 30.4054C22.794 30.4054 22.6221 30.3341 22.4955 30.2074L18.4414 26.1534L19.3968 25.198L22.9732 28.7743L30.6036 21.1439L31.559 22.0993L23.4509 30.2074C23.3242 30.3341 23.1523 30.4054 22.9732 30.4054Z" fill="#59ABFF"/>
</svg>
